<?xml version="1.0" encoding="UTF-8"?>
<svg version="1.1" xmlns="http://www.w3.org/2000/svg" width="500" height="500">
<path d="M0 0 C0.71220703 0.16048828 1.42441406 0.32097656 2.15820312 0.48632812 C9.89987036 2.23799196 17.54820839 4.24777034 25 7 C26.41925781 7.50273438 26.41925781 7.50273438 27.8671875 8.015625 C40.57708312 12.67695591 52.53770475 18.81752664 64 26 C64.81082031 26.47824219 65.62164062 26.95648438 66.45703125 27.44921875 C83.42336345 37.79581458 98.83715278 51.97993312 111.1875 67.5 C111.89253662 68.3813562 111.89253662 68.3813562 112.61181641 69.28051758 C114.78053776 72.0836406 116.55283657 74.42269258 117 78 C117.66 78 118.32 78 119 78 C120.6404154 80.24150624 122.14662087 82.4678831 123.625 84.8125 C124.25535156 85.77639648 124.25535156 85.77639648 124.8984375 86.75976562 C128 91.61854454 128 91.61854454 128 95 C128.66 95 129.32 95 130 95 C130.42539062 96.010625 130.85078125 97.02125 131.2890625 98.0625 C132.87408977 101.76399392 134.61882168 105.37639223 136.375 109 C141.28960767 119.36616001 144.50511399 129.77301297 147 141 C133.14 141 119.28 141 105 141 C101 132 101 132 99.8671875 129.34765625 C97.22176944 123.2548627 94.14196807 117.43711711 90.9375 111.625 C90.51388184 110.85164307 90.09026367 110.07828613 89.65380859 109.28149414 C87.38367964 105.21377381 85.03713573 101.55537714 82 98 C81.27941406 97.1028125 80.55882812 96.205625 79.81640625 95.28125 C79.07261719 94.3634375 78.32882812 93.445625 77.5625 92.5 C76.82128906 91.5821875 76.08007812 90.664375 75.31640625 89.71875 C73.0052829 86.92205382 73.0052829 86.92205382 70.21484375 84.28125 C68 82 68 82 68 80 C67.43410156 79.7525 66.86820312 79.505 66.28515625 79.25 C63.63006909 77.79764463 61.66260716 76.04815279 59.4375 74 C57.00270422 71.76639308 54.75662332 69.83774888 52 68 C52 67.34 52 66.68 52 66 C51.43796875 65.89816406 50.8759375 65.79632813 50.296875 65.69140625 C47.53658474 64.86050255 45.63261706 63.5616753 43.25 61.9375 C36.70596914 57.6658244 29.81451777 54.26277173 22.78686523 50.875 C21.18077768 50.088524 19.59651649 49.2578438 18.015625 48.421875 C14.45714915 46.74404442 10.83334279 45.5819588 7.0625 44.5 C6.32249756 44.28569336 5.58249512 44.07138672 4.82006836 43.85058594 C-27.74758497 34.63784816 -60.27841252 36.52720683 -92 48 C-92.79148438 48.27199219 -93.58296875 48.54398438 -94.3984375 48.82421875 C-99.94421405 50.86012675 -105.04204377 53.56220207 -110.1875 56.4375 C-110.85297852 56.8089917 -111.51845703 57.1804834 -112.20410156 57.56323242 C-115.55339125 59.47395972 -118.70718641 61.48058639 -121.80078125 63.78515625 C-125 66 -125 66 -128 66 C-128.495 67.485 -128.495 67.485 -129 69 C-132.44444444 72 -132.44444444 72 -135 72 C-135 72.66 -135 73.32 -135 74 C-135.66 74 -136.32 74 -137 74 C-137 74.66 -137 75.32 -137 76 C-138.50390625 77.48046875 -138.50390625 77.48046875 -140.5625 79.1875 C-163.53786703 98.79962988 -176.36581385 126.26577159 -184 155 C-184.2165625 155.81082031 -184.433125 156.62164062 -184.65625 157.45703125 C-193.61382897 194.01185721 -183.78844101 234.46305564 -165.07421875 266.2734375 C-162.8008651 269.90496174 -160.52230672 273.36563811 -157.796875 276.67578125 C-156 279 -156 279 -156 281 C-155.01 281.33 -154.02 281.66 -153 282 C-151.7890625 283.453125 -151.7890625 283.453125 -150.625 285.25 C-132.96857036 310.97942845 -97.13156899 328.48461062 -67.1484375 334.2890625 C-33.67820458 340.2437033 1.64807964 335.83667814 31.42944336 319.47802734 C35.55131975 317.22042729 39.45336647 315.30424263 44 314 C44 313.34 44 312.68 44 312 C45.50365787 311.0026759 47.05686702 310.08002525 48.625 309.1875 C53.70389477 306.05595349 58.01842472 302.50884399 62.375 298.4375 C62.95717285 297.89569092 63.5393457 297.35388184 64.13916016 296.7956543 C66.88342805 294.18840237 69.41965316 291.55205144 71.7890625 288.59765625 C72.88347656 287.31181641 72.88347656 287.31181641 74 286 C74.66 286 75.32 286 76 286 C76.2475 285.2575 76.495 284.515 76.75 283.75 C78 281 78 281 79.71875 279.3671875 C90.88583351 267.77942619 105.83717136 242.49174924 106.0234375 225.9140625 C104.32750268 222.74227601 101.20049227 221.70191238 98.0625 220.25 C97.00289063 219.74110229 97.00289063 219.74110229 95.921875 219.22192383 C93.62341997 218.12779282 91.31429748 217.06018363 89 216 C88.21093262 215.6376123 87.42186523 215.27522461 86.60888672 214.90185547 C75.80147733 209.96655267 65.03120262 205.5517318 53.6875 202 C52.44552856 201.60917236 52.44552856 201.60917236 51.1784668 201.21044922 C45.15670836 199.32890711 39.11238737 197.56587002 33 196 C33.35884637 203.67188782 34.23110641 210.81882354 36.25 218.234375 C36.90498453 220.64963044 37.44360964 223.04818716 37.9375 225.5 C40.25667118 236.03131833 43.99330877 246.98996316 50 256 C50 257.32 50 258.64 50 260 C50.66 260 51.32 260 52 260 C52.268125 260.52207031 52.53625 261.04414063 52.8125 261.58203125 C55.88996117 267.36239417 59.48525926 272.46300363 63.5234375 277.6171875 C64.01070313 278.40351563 64.49796875 279.18984375 65 280 C64.67 280.99 64.34 281.98 64 283 C63.34 283 62.68 283 62 283 C61.34 284.32 60.68 285.64 60 287 C59.34 287 58.68 287 58 287 C57.67 287.99 57.34 288.98 57 290 C52.85707721 294.26157452 48.10231267 297.96290912 43 301 C42.34 301 41.68 301 41 301 C41 301.66 41 302.32 41 303 C38.25 304.625 38.25 304.625 35 306 C30.64150789 304.82759247 28.603924 301.09513303 26.1875 297.5625 C25.75171631 296.93722412 25.31593262 296.31194824 24.86694336 295.66772461 C14.44865722 280.62164304 14.44865722 280.62164304 11 272 C10.21724753 270.45378825 9.42462639 268.91255321 8.625 267.375 C-3.47382762 243.35900884 -8.81579144 215.7762773 -8 189 C-28.76412017 190.78710791 -28.76412017 190.78710791 -49.25 194.44921875 C-51.91500814 194.98297748 -54.29098678 195.10457588 -57 195 C-57 193.02 -57 191.04 -57 189 C-60.63 189 -64.26 189 -68 189 C-67.95875 190.794375 -67.9175 192.58875 -67.875 194.4375 C-67.98539587 228.586622 -79.7049465 262.16278854 -97.625 290.9375 C-98.21539062 291.89527344 -98.80578125 292.85304688 -99.4140625 293.83984375 C-99.93742188 294.55269531 -100.46078125 295.26554687 -101 296 C-101.66 296 -102.32 296 -103 296 C-103.0928125 296.804375 -103.0928125 296.804375 -103.1875 297.625 C-104.38027382 301.11156962 -106.56197166 303.24940393 -109 306 C-116.74239962 304.61547677 -123.79823695 298.60189867 -129 293 C-131.58272567 290.71020328 -134.18256104 288.44177253 -136.79296875 286.18359375 C-138.83443373 284.16380805 -139.93122598 282.63312481 -141 280 C-140.29875 279.030625 -139.5975 278.06125 -138.875 277.0625 C-126.07989996 259.09775402 -116.23586929 239.065348 -111.9375 217.3125 C-111.7612207 216.42852539 -111.58494141 215.54455078 -111.40332031 214.63378906 C-110.20012721 208.4358662 -109.3520586 202.30765041 -109 196 C-120.05173662 199.03674577 -131.01198268 202.15955249 -141.75561523 206.17041016 C-144.65815892 207.24255004 -146.87622684 208 -150 208 C-150 193.15 -150 178.3 -150 163 C-141.73964636 160.45835272 -133.71357161 158.09881714 -125.3125 156.25 C-124.33861328 156.02957031 -123.36472656 155.80914062 -122.36132812 155.58203125 C-115.29131891 154 -115.29131891 154 -113 154 C-113.53304975 148.77611243 -114.86009815 144.77362721 -117 140 C-117.4942282 138.54670193 -117.9727004 137.08797578 -118.4375 135.625 C-123.02953104 121.70904806 -130.5323663 108.6361887 -139.56640625 97.13671875 C-141 95 -141 95 -141 92 C-139.56640625 90.45703125 -139.56640625 90.45703125 -137.5625 88.8125 C-133.56716229 85.479491 -129.71535017 82.02262986 -125.8828125 78.50390625 C-124 77 -124 77 -122 77 C-122 76.34 -122 75.68 -122 75 C-120.04109119 73.60699818 -118.0360882 72.27754554 -116 71 C-115.01 70.34 -114.02 69.68 -113 69 C-110.5625 68.5 -110.5625 68.5 -108 69 C-106.41613823 70.99260029 -105.26280699 72.81556546 -104 75 C-102.92296732 76.58762595 -101.83936169 78.17080823 -100.75 79.75 C-98 83.75247525 -98 83.75247525 -98 86 C-97.34 86 -96.68 86 -96 86 C-94.81031156 88.1414392 -93.62099697 90.28307346 -92.43359375 92.42578125 C-91.5162484 94.07300356 -90.5923724 95.71661645 -89.66015625 97.35546875 C-89.02400391 98.47888672 -89.02400391 98.47888672 -88.375 99.625 C-87.99085938 100.29789062 -87.60671875 100.97078125 -87.2109375 101.6640625 C-85.6324267 104.70906075 -84.32406667 107.83639032 -83 111 C-82.51660156 112.14597656 -82.03320312 113.29195313 -81.53515625 114.47265625 C-76.94497955 125.66197292 -72.83899067 136.83463526 -72 149 C-71.01 148.67 -70.02 148.34 -69 148 C-66.26527557 147.76000793 -63.55275976 147.57361675 -60.8125 147.4375 C-59.98169922 147.3957666 -59.15089844 147.3540332 -58.29492188 147.31103516 C-43.93512955 146.66288683 -29.54316956 146.7163754 -15.1875 147.4375 C-14.00510742 147.49623291 -14.00510742 147.49623291 -12.79882812 147.55615234 C-9.66198096 147.7384135 -6.99575397 148.00141534 -4 149 C-3.94936401 148.10099976 -3.94936401 148.10099976 -3.89770508 147.18383789 C-3.39527732 140.53390735 -1.88721838 134.7138453 0.3125 128.4375 C0.75625977 127.11588867 0.75625977 127.11588867 1.20898438 125.76757812 C6.75068271 109.54943288 14.82490081 94.42382556 24 80 C24.52980469 79.05511719 25.05960938 78.11023438 25.60546875 77.13671875 C26.06566406 76.43160156 26.52585937 75.72648437 27 75 C27.66 75 28.32 75 29 75 C29.4640625 73.7934375 29.4640625 73.7934375 29.9375 72.5625 C31 70 31 70 32 69 C34.66836355 68.48743299 36.42890325 68.68441412 38.81494141 70.00292969 C40.86522497 71.40119952 42.84199654 72.8664806 44.8125 74.375 C45.85180664 75.13683594 45.85180664 75.13683594 46.91210938 75.9140625 C50.64819762 78.71152759 50.64819762 78.71152759 52 80 C52 80.66 52 81.32 52 82 C52.56203125 82.23460937 53.1240625 82.46921875 53.703125 82.7109375 C56.54635891 84.30663 58.48098127 86.28924543 60.75 88.625 C61.54921875 89.44226563 62.3484375 90.25953125 63.171875 91.1015625 C64.07679688 92.04128906 64.07679688 92.04128906 65 93 C62.70132025 97.15024788 60.30393327 101.06176869 57.54931641 104.93237305 C47.71961317 118.88139329 39.56988519 136.04864189 37 153 C39.72813018 153.77465425 42.45742947 154.54473641 45.1875 155.3125 C45.93708984 155.52583984 46.68667969 155.73917969 47.45898438 155.95898438 C51.98746458 157.22847464 56.51818699 158.34418702 61.11328125 159.34765625 C68.90527933 161.12355994 76.43510273 163.57874816 84 166.125 C85.07651321 166.48466354 85.07651321 166.48466354 86.17477417 166.85159302 C101.25445741 171.90467396 115.81073012 177.80067692 130 185 C130 185.66 130 186.32 130 187 C130.64324219 187.06058594 131.28648437 187.12117187 131.94921875 187.18359375 C136.36674573 188.36574886 139.92794568 190.69529884 143.8125 193.0625 C144.99489258 193.77116211 144.99489258 193.77116211 146.20117188 194.49414062 C148.13812608 195.65631315 150.07078295 196.82504417 152 198 C151.91760788 237.54821736 135.76859006 274.1693092 112.25585938 305.33300781 C111.14587996 306.80636307 110.04852571 308.28921134 108.953125 309.7734375 C105.63202666 314.19667025 102.30973833 317.55220933 98 321 C97.08154297 322.17369141 97.08154297 322.17369141 96.14453125 323.37109375 C93.92008593 326.09796388 91.6230277 328.12128841 88.875 330.3125 C87.90820312 331.08722656 86.94140625 331.86195313 85.9453125 332.66015625 C84.97335937 333.43230469 84.00140625 334.20445312 83 335 C82.11054688 335.72058594 81.22109375 336.44117188 80.3046875 337.18359375 C72.82225424 343.23589833 65.47702892 348.44591731 57 353 C55.94167969 353.598125 54.88335937 354.19625 53.79296875 354.8125 C37.72681513 363.8000901 20.90819549 369.86252668 3 374 C2.26386475 374.1767627 1.52772949 374.35352539 0.76928711 374.53564453 C-31.83814973 382.15852923 -79.46996285 381.78201928 -109 364 C-110.94411386 363.23372671 -112.90413017 362.50706863 -114.875 361.8125 C-126.48179316 357.4353062 -137.0876868 351.44594236 -147 344 C-148.03511719 343.23042969 -149.07023437 342.46085937 -150.13671875 341.66796875 C-153.10105932 339.45836518 -156.05156083 337.23078389 -159 335 C-159.77601563 334.45859375 -160.55203125 333.9171875 -161.3515625 333.359375 C-162.16753906 332.68648438 -162.16753906 332.68648438 -163 332 C-163 331.34 -163 330.68 -163 330 C-163.53625 329.773125 -164.0725 329.54625 -164.625 329.3125 C-170.16277269 326.25215194 -174.13681599 321.89388498 -178.1875 317.12890625 C-180.63607756 314.25288304 -183.17831993 311.46260087 -185.71484375 308.6640625 C-187 307 -187 307 -187 305 C-187.66 305 -188.32 305 -189 305 C-190.26171875 303.3828125 -190.26171875 303.3828125 -191.6875 301.125 C-193.92423542 297.64684908 -196.22375905 294.24190129 -198.625 290.875 C-202.46441896 285.40340513 -205.57984503 280.0229056 -208.19238281 273.84936523 C-209.44664072 270.97723596 -210.86669981 268.18684852 -212.25 265.375 C-226.17197458 236.06223581 -230.66929199 204.35193719 -228.15576172 172.14941406 C-228.02080578 170.28710676 -227.94449264 168.42072609 -227.87890625 166.5546875 C-227.38061491 154.74669264 -224.63443397 141.90214862 -220 131 C-219.7525 129.88625 -219.505 128.7725 -219.25 127.625 C-215.22850902 111.2648435 -206.48677837 94.30340116 -196.375 80.91015625 C-195.00888618 79.01234472 -193.98497061 77.11673973 -193 75 C-192.34 75 -191.68 75 -191 75 C-190.731875 74.2575 -190.46375 73.515 -190.1875 72.75 C-189.04723249 70.10938051 -187.90619694 68.14447156 -186 66 C-185.34 66 -184.68 66 -184 66 C-183.62875 65.1646875 -183.62875 65.1646875 -183.25 64.3125 C-181.77075182 61.57589087 -180.06532561 59.32349131 -178 57 C-177.34 57 -176.68 57 -176 57 C-175.73372803 56.40541992 -175.46745605 55.81083984 -175.19311523 55.19824219 C-173.97211141 52.94861696 -172.76706745 51.57227273 -170.91015625 49.828125 C-170.2963208 49.2501416 -169.68248535 48.6721582 -169.05004883 48.07666016 C-168.39415771 47.4738623 -167.7382666 46.87106445 -167.0625 46.25 C-166.38662842 45.62528809 -165.71075684 45.00057617 -165.0144043 44.35693359 C-159.63235335 39.44723841 -154.04618161 35.06920434 -148 31 C-146.58847656 30.00419922 -146.58847656 30.00419922 -145.1484375 28.98828125 C-137.75941105 23.87055185 -130.08177656 19.87887153 -122 16 C-120.29026705 15.12773799 -118.58178776 14.25301101 -116.875 13.375 C-107.46742746 8.70195743 -98.23341761 5.3398353 -88 3 C-86.14575907 2.50027549 -84.29159381 2.0002701 -82.4375 1.5 C-80.29509781 0.9854968 -78.14889281 0.48668304 -76 0 C-74.79730469 -0.28230469 -73.59460938 -0.56460938 -72.35546875 -0.85546875 C-49.72511521 -5.55443092 -22.47720439 -5.36868806 0 0 Z " fill="#EB1D25" transform="translate(288,59)"/>
<path d="M0 0 C0.77976196 -0.00696899 1.55952393 -0.01393799 2.36291504 -0.02111816 C4.8591866 -0.03838523 7.35523375 -0.04483556 9.8515625 -0.046875 C11.12945648 -0.04838562 11.12945648 -0.04838562 12.4331665 -0.04992676 C24.69336584 -0.04010635 36.50261339 0.3431431 48.4765625 3.203125 C49.18876953 3.36361328 49.90097656 3.52410156 50.63476562 3.68945312 C58.38700917 5.44351 65.98608884 7.52795584 73.4765625 10.203125 C73.4765625 10.533125 73.4765625 10.863125 73.4765625 11.203125 C70.5065625 11.203125 67.5365625 11.203125 64.4765625 11.203125 C64.4765625 10.543125 64.4765625 9.883125 64.4765625 9.203125 C58.8665625 8.543125 53.2565625 7.883125 47.4765625 7.203125 C47.4765625 6.543125 47.4765625 5.883125 47.4765625 5.203125 C27.1815625 3.223125 27.1815625 3.223125 6.4765625 1.203125 C6.4765625 1.863125 6.4765625 2.523125 6.4765625 3.203125 C3.22663804 3.26131924 -0.02315185 3.29678616 -3.2734375 3.328125 C-4.19382813 3.34488281 -5.11421875 3.36164062 -6.0625 3.37890625 C-7.39667969 3.38857422 -7.39667969 3.38857422 -8.7578125 3.3984375 C-9.98322754 3.41414795 -9.98322754 3.41414795 -11.23339844 3.43017578 C-13.75425715 3.1802399 -15.30620995 2.38024595 -17.5234375 1.203125 C-11.65308739 0.48206538 -5.91167587 0.03582834 0 0 Z " fill="#DA535A" transform="translate(239.5234375,55.796875)"/>
<path d="M0 0 C0.33 0 0.66 0 1 0 C1.19406478 1.64507218 1.38007935 3.29109594 1.5625 4.9375 C1.71912109 6.31228516 1.71912109 6.31228516 1.87890625 7.71484375 C1.93884766 8.84599609 1.93884766 8.84599609 2 10 C1 11 1 11 -1.70179749 11.12025452 C-2.90758957 11.11803391 -4.11338165 11.11581329 -5.35571289 11.11352539 C-6.01910172 11.11367142 -6.68249054 11.11381744 -7.36598206 11.1139679 C-9.56823956 11.11326881 -11.77041345 11.10547665 -13.97265625 11.09765625 C-15.49580336 11.09579206 -17.01895107 11.09436816 -18.542099 11.09336853 C-22.55837651 11.08954346 -26.57461808 11.07971328 -30.59088135 11.06866455 C-34.68623366 11.05845019 -38.78159176 11.05387086 -42.87695312 11.04882812 C-50.91798528 11.038091 -58.95898817 11.02101472 -67 11 C-66.67 10.34 -66.34 9.68 -66 9 C-48.06481054 7.8156007 -30.14482272 7.5354545 -12.1875 8.4375 C-11.39923828 8.47665527 -10.61097656 8.51581055 -9.79882812 8.55615234 C-6.66198096 8.7384135 -3.99575397 9.00141534 -1 10 C-0.67 6.7 -0.34 3.4 0 0 Z " fill="#D53C45" transform="translate(285,198)"/>
<path d="M0 0 C-1 2 -1 2 -2.890625 2.6328125 C-6.97875601 3.48563453 -10.79614144 4.27121668 -15 4 C-15 4.66 -15 5.32 -15 6 C-15.59014893 6.02505615 -16.18029785 6.0501123 -16.78833008 6.07592773 C-19.46326814 6.19200052 -22.1378638 6.31467572 -24.8125 6.4375 C-26.2056543 6.49647461 -26.2056543 6.49647461 -27.62695312 6.55664062 C-28.51962891 6.59853516 -29.41230469 6.64042969 -30.33203125 6.68359375 C-31.56530151 6.73858032 -31.56530151 6.73858032 -32.82348633 6.79467773 C-35.17905178 6.93427772 -35.17905178 6.93427772 -38 8 C-40.44891772 7.94765477 -42.85262514 7.83452934 -45.29296875 7.66015625 C-46.35201164 7.59144569 -46.35201164 7.59144569 -47.43244934 7.52134705 C-49.68454081 7.37395107 -51.93597808 7.21833211 -54.1875 7.0625 C-55.71545886 6.96104599 -57.24345343 6.8601281 -58.77148438 6.75976562 C-62.51476537 6.51272655 -66.2574807 6.25831193 -70 6 C-69.67 5.34 -69.34 4.68 -69 4 C-67.47415283 4.00785522 -67.47415283 4.00785522 -65.91748047 4.01586914 C-62.07439078 4.03423068 -58.2313048 4.04554352 -54.38818359 4.05493164 C-52.7377863 4.05990175 -51.08739326 4.06668017 -49.43701172 4.07543945 C-29.34663586 4.19865581 -29.34663586 4.19865581 -9.64453125 0.6328125 C-6.29326362 -0.16911565 -3.42325588 -0.23340381 0 0 Z " fill="#DA555A" transform="translate(294,391)"/>
<path d="M0 0 C2.64 0 5.28 0 8 0 C8.6875 1.75 8.6875 1.75 9 4 C7.5625 6.25 7.5625 6.25 6 8 C6 6.35 6 4.7 6 3 C-5.05173662 6.03674577 -16.01198268 9.15955249 -26.75561523 13.17041016 C-29.65815892 14.24255004 -31.87622684 15 -35 15 C-35 12.03 -35 9.06 -35 6 C-34.67 6 -34.34 6 -34 6 C-34 7.65 -34 9.3 -34 11 C-31.69 11 -29.38 11 -27 11 C-27 10.34 -27 9.68 -27 9 C-24.94921875 8.77213542 -22.8984375 8.54427083 -20.84765625 8.31640625 C-18.98859771 8.18113386 -18.98859771 8.18113386 -18 7 C-16.33382885 6.95936168 -14.66611905 6.957279 -13 7 C-13 6.34 -13 5.68 -13 5 C-11.35 5 -9.7 5 -8 5 C-8 4.34 -8 3.68 -8 3 C-5.36 2.67 -2.72 2.34 0 2 C0 1.34 0 0.68 0 0 Z " fill="#DD5058" transform="translate(173,252)"/>
<path d="M0 0 C0.99 0.33 1.98 0.66 3 1 C3 2.32 3 3.64 3 5 C3.33 4.34 3.66 3.68 4 3 C4.66 3 5.32 3 6 3 C6.33 3.99 6.66 4.98 7 6 C18.55 6.33 30.1 6.66 42 7 C42.33 6.01 42.66 5.02 43 4 C45 6 45 6 45 9 C31.14 9 17.28 9 3 9 C0 2 0 2 0 0 Z " fill="#D5323A" transform="translate(390,191)"/>
<path d="M0 0 C-5.46254504 4.98204339 -10.99939323 9.68054482 -17 14 C-17.93005859 14.680625 -17.93005859 14.680625 -18.87890625 15.375 C-25.59488106 20.24879597 -25.59488106 20.24879597 -29 22 C-29.66 21.67 -30.32 21.34 -31 21 C-30.625 18.5625 -30.625 18.5625 -30 16 C-29.34 15.67 -28.68 15.34 -28 15 C-28 15.66 -28 16.32 -28 17 C-26.02 16.67 -24.04 16.34 -22 16 C-22 15.01 -22 14.02 -22 13 C-20.35 12.67 -18.7 12.34 -17 12 C-16.67 10.68 -16.34 9.36 -16 8 C-15.01 8 -14.02 8 -13 8 C-13 7.34 -13 6.68 -13 6 C-11.68 6 -10.36 6 -9 6 C-8.9175 5.05125 -8.835 4.1025 -8.75 3.125 C-8 0 -8 0 -6.1875 -1.5 C-3.40148082 -2.13680438 -2.43524515 -1.34780864 0 0 Z " fill="#DD4A50" transform="translate(378,388)"/>
<path d="M0 0 C4.29 0 8.58 0 13 0 C13 0.66 13 1.32 13 2 C14.95764383 2.19456705 16.91615321 2.38044247 18.875 2.5625 C19.96554687 2.66691406 21.05609375 2.77132813 22.1796875 2.87890625 C24.95152023 3.22639404 24.95152023 3.22639404 27 2 C27.33 3.65 27.66 5.3 28 7 C29.32 7.33 30.64 7.66 32 8 C32 8.66 32 9.32 32 10 C31.21302734 9.76216797 31.21302734 9.76216797 30.41015625 9.51953125 C27.60797755 8.67561387 24.80416147 7.83730817 22 7 C20.9795459 6.69473389 20.9795459 6.69473389 19.93847656 6.38330078 C17.68887762 5.7114007 15.43828615 5.0429113 13.1875 4.375 C12.45861572 4.15690674 11.72973145 3.93881348 10.97875977 3.71411133 C7.33828623 2.63708035 3.74444092 1.66208189 0 1 C0 0.67 0 0.34 0 0 Z " fill="#D84E56" transform="translate(323,255)"/>
<path d="M0 0 C2.70643584 1.35321792 3.03693596 2.84101971 4.3125 5.5625 C6.31138422 9.72733935 8.539214 13.52180691 11.1796875 17.30859375 C12 19 12 19 11 22 C9.29115995 20.37660195 7.62553283 18.70680947 6 17 C6 16.34 6 15.68 6 15 C4.68 15 3.36 15 2 15 C-0.59227518 10.13948404 -0.18689553 5.34728867 0 0 Z " fill="#E42C32" transform="translate(114,311)"/>
<path d="M0 0 C0.33 0.99 0.66 1.98 1 3 C-0.21484375 4.82421875 -0.21484375 4.82421875 -1.9375 6.6875 C-2.50339844 7.31011719 -3.06929687 7.93273437 -3.65234375 8.57421875 C-4.09707031 9.04472656 -4.54179687 9.51523437 -5 10 C-8.19137349 9.36747553 -10.51237368 8.24396936 -13.25 6.5 C-13.95640625 6.0565625 -14.6628125 5.613125 -15.390625 5.15625 C-15.92171875 4.7746875 -16.4528125 4.393125 -17 4 C-17 3.67 -17 3.34 -17 3 C-15.948125 3.04125 -14.89625 3.0825 -13.8125 3.125 C-10.25989827 3.00852125 -8.15133359 2.52791932 -5 1 C-4.67 1.66 -4.34 2.32 -4 3 C-2.68 2.01 -1.36 1.02 0 0 Z " fill="#DD434A" transform="translate(184,355)"/>
<path d="M0 0 C0.33 0.66 0.66 1.32 1 2 C0.54625 2.4125 0.0925 2.825 -0.375 3.25 C-2.1128692 4.89397841 -2.1128692 4.89397841 -2.75 7.0625 C-4.71933909 10.11497558 -7.59999775 10.14999944 -11 11 C-11.66 11.66 -12.32 12.32 -13 13 C-15.625 13.125 -15.625 13.125 -18 13 C-18 13.66 -18 14.32 -18 15 C-19.32 15 -20.64 15 -22 15 C-22 15.66 -22 16.32 -22 17 C-23.32 16.67 -24.64 16.34 -26 16 C-23.87767021 14.82823482 -21.75242209 13.66245215 -19.625 12.5 C-19.02171875 12.16613281 -18.4184375 11.83226562 -17.796875 11.48828125 C-13.2265625 9 -13.2265625 9 -11 9 C-11 8.34 -11 7.68 -11 7 C-9.21601386 5.71993203 -7.37146094 4.52339649 -5.5 3.375 C-4.4790625 2.74335938 -3.458125 2.11171875 -2.40625 1.4609375 C-1.6121875 0.97882813 -0.818125 0.49671875 0 0 Z " fill="#DB5A5D" transform="translate(343,364)"/>
<path d="M0 0 C0.33 0 0.66 0 1 0 C3.73871733 12.66656767 0.73761497 24.61338441 -2 37 C-2.33 37 -2.66 37 -3 37 C-2.979375 35.9275 -2.95875 34.855 -2.9375 33.75 C-2.9857984 30.85209576 -3.13155885 28.71387859 -4 26 C-3.34 26 -2.68 26 -2 26 C-2.020625 24.865625 -2.04125 23.73125 -2.0625 22.5625 C-2 19 -2 19 -1 18 C-0.84417697 16.65984779 -0.74955858 15.31241097 -0.68359375 13.96484375 C-0.64169922 13.15595703 -0.59980469 12.34707031 -0.55664062 11.51367188 C-0.49766602 10.2384668 -0.49766602 10.2384668 -0.4375 8.9375 C-0.39431641 8.08349609 -0.35113281 7.22949219 -0.30664062 6.34960938 C-0.20023298 4.23327963 -0.09958269 2.11666187 0 0 Z " fill="#DB4C53" transform="translate(217,256)"/>
<path d="M0 0 C2.33333333 2.33333333 4.66666667 4.66666667 7 7 C7 7.99 7 8.98 7 10 C7.66 10 8.32 10 9 10 C9.66 11.65 10.32 13.3 11 15 C10.34 15 9.68 15 9 15 C9 14.34 9 13.68 9 13 C7.35 13 5.7 13 4 13 C3.896875 12.360625 3.79375 11.72125 3.6875 11.0625 C3.460625 10.381875 3.23375 9.70125 3 9 C2.01 8.67 1.02 8.34 0 8 C-1.3125 6.1875 -1.3125 6.1875 -2 4 C-1.125 1.75 -1.125 1.75 0 0 Z " fill="#E12E36" transform="translate(398,127)"/>
<path d="M0 0 C4.95 0 9.9 0 15 0 C15.33 0.99 15.66 1.98 16 3 C20.455 2.505 20.455 2.505 25 2 C24.67 2.99 24.34 3.98 24 5 C25.32 5 26.64 5 28 5 C27.67 5.99 27.34 6.98 27 8 C25.33324219 7.49339844 25.33324219 7.49339844 23.6328125 6.9765625 C15.79812679 4.61920006 8.0721787 2.40942803 0 1 C0 0.67 0 0.34 0 0 Z " fill="#DD575B" transform="translate(276,98)"/>
<path d="M0 0 C0.99 0.495 0.99 0.495 2 1 C2.06058594 2.21558594 2.12117188 3.43117188 2.18359375 4.68359375 C2.26798332 6.26824228 2.3526321 7.85287702 2.4375 9.4375 C2.47681641 10.23994141 2.51613281 11.04238281 2.55664062 11.86914062 C2.4054296 15.75239561 2.4054296 15.75239561 4 19 C4.07226502 20.85287502 4.0838122 22.70833878 4.0625 24.5625 C4.05347656 25.57441406 4.04445313 26.58632813 4.03515625 27.62890625 C4.02355469 28.41136719 4.01195312 29.19382812 4 30 C3.34 30 2.68 30 2 30 C-0.5035281 20.0529464 -0.18974296 10.17233107 0 0 Z " fill="#D44146" transform="translate(281,255)"/>
<path d="M0 0 C0.66 0.99 1.32 1.98 2 3 C1.07989717 5.3659787 0.07136051 7.69855891 -1 10 C-1.69140522 12.77888613 -1.69140522 12.77888613 -2 15 C-2.66 15 -3.32 15 -4 15 C-4 18.3 -4 21.6 -4 25 C-5.32 24.67 -6.64 24.34 -8 24 C-8.33 25.65 -8.66 27.3 -9 29 C-9.66 29 -10.32 29 -11 29 C-9.98696415 24.76366825 -8.65214351 21.17342872 -6.625 17.3125 C-3.73730402 11.75132881 -1.83831855 5.97710277 0 0 Z " fill="#DD585E" transform="translate(393,290)"/>
<path d="M0 0 C0.33 0 0.66 0 1 0 C1.19406478 1.64507218 1.38007935 3.29109594 1.5625 4.9375 C1.66691406 5.85402344 1.77132813 6.77054688 1.87890625 7.71484375 C1.91886719 8.46894531 1.95882813 9.22304687 2 10 C1 11 1 11 -1.68383789 11.11352539 C-2.85164795 11.10828857 -4.01945801 11.10305176 -5.22265625 11.09765625 C-6.48271484 11.09443359 -7.74277344 11.09121094 -9.04101562 11.08789062 C-10.38151109 11.07953403 -11.72200588 11.07106907 -13.0625 11.0625 C-14.40689942 11.0574866 -15.7513006 11.05292342 -17.09570312 11.04882812 C-20.39717941 11.03699488 -23.69856803 11.02050971 -27 11 C-24.05136155 9.31273516 -21.94648342 8.75111684 -18.55859375 8.76953125 C-17.72779297 8.77146484 -16.89699219 8.77339844 -16.04101562 8.77539062 C-14.75227539 8.79375977 -14.75227539 8.79375977 -13.4375 8.8125 C-12.57447266 8.81314453 -11.71144531 8.81378906 -10.82226562 8.81445312 C-4.42237723 8.85920759 -4.42237723 8.85920759 -1 10 C-0.67 6.7 -0.34 3.4 0 0 Z " fill="#D03F45" transform="translate(285,198)"/>
<path d="M0 0 C2.97 0.495 2.97 0.495 6 1 C6 1.66 6 2.32 6 3 C5.34 3 4.68 3 4 3 C4 3.66 4 4.32 4 5 C2.42578125 6.5859375 2.42578125 6.5859375 0.3125 8.375 C-0.41324219 8.99246094 -1.13898438 9.60992187 -1.88671875 10.24609375 C-4.23449112 12.19461463 -6.59564775 14.1215998 -9 16 C-9 14.35 -9 12.7 -9 11 C-8.34 11 -7.68 11 -7 11 C-6.67 10.01 -6.34 9.02 -6 8 C-5.01 8.33 -4.02 8.66 -3 9 C-3 7.35 -3 5.7 -3 4 C-2.01 4 -1.02 4 0 4 C0 2.68 0 1.36 0 0 Z " fill="#DD4047" transform="translate(147,130)"/>
<path d="M0 0 C3.93849153 3.93849153 6 7.51224634 6 13 C6.66 13 7.32 13 8 13 C9.65 16.3 11.3 19.6 13 23 C11.68 23 10.36 23 9 23 C9 22.01 9 21.02 9 20 C8.34 20 7.68 20 7 20 C6.34 18.35 5.68 16.7 5 15 C4.34 15 3.68 15 3 15 C3.33 13.35 3.66 11.7 4 10 C3.01 9.67 2.02 9.34 1 9 C0.67 6.03 0.34 3.06 0 0 Z " fill="#DB4851" transform="translate(332,306)"/>
<path d="M0 0 C3.77086526 0.4207381 5.62911967 2.01145974 8.61328125 4.3125 C9.58910156 5.055 10.56492187 5.7975 11.5703125 6.5625 C12.30636719 7.14 13.04242188 7.7175 13.80078125 8.3125 C12.81078125 8.9725 11.82078125 9.6325 10.80078125 10.3125 C10.47078125 9.3225 10.14078125 8.3325 9.80078125 7.3125 C8.47281834 6.95837656 7.13861518 6.62728446 5.80078125 6.3125 C5.30578125 5.77625 4.81078125 5.24 4.30078125 4.6875 C3.80578125 4.23375 3.31078125 3.78 2.80078125 3.3125 C0.63778914 3.54007731 0.63778914 3.54007731 -1.19921875 4.3125 C-1.52921875 5.9625 -1.85921875 7.6125 -2.19921875 9.3125 C-4.17921875 9.6425 -6.15921875 9.9725 -8.19921875 10.3125 C-7.86921875 8.9925 -7.53921875 7.6725 -7.19921875 6.3125 C-6.53921875 6.3125 -5.87921875 6.3125 -5.19921875 6.3125 C-4.88984375 5.508125 -4.58046875 4.70375 -4.26171875 3.875 C-2.82123228 0.40088558 -2.82123228 0.40088558 0 0 Z " fill="#DC7978" transform="translate(322.19921875,127.6875)"/>
<path d="M0 0 C1.23556641 0.01740234 1.23556641 0.01740234 2.49609375 0.03515625 C3.32238281 0.04417969 4.14867187 0.05320312 5 0.0625 C5.63808594 0.07410156 6.27617187 0.08570313 6.93359375 0.09765625 C6.93359375 0.75765625 6.93359375 1.41765625 6.93359375 2.09765625 C0.34945852 3.74536456 -5.85578999 4.48413125 -12.62890625 4.72265625 C-13.54220703 4.76132812 -14.45550781 4.8 -15.39648438 4.83984375 C-17.61960549 4.93295877 -19.84274238 5.01877791 -22.06640625 5.09765625 C-22.39640625 4.43765625 -22.72640625 3.77765625 -23.06640625 3.09765625 C-22.16547241 3.01463257 -22.16547241 3.01463257 -21.24633789 2.92993164 C-18.54007494 2.67794843 -15.83450741 2.41914455 -13.12890625 2.16015625 C-12.18337891 2.07314453 -11.23785156 1.98613281 -10.26367188 1.89648438 C-8.91499023 1.7659668 -8.91499023 1.7659668 -7.5390625 1.6328125 C-6.70640869 1.55426025 -5.87375488 1.47570801 -5.01586914 1.39477539 C-2.66386291 1.03630431 -2.41586844 0.11417148 0 0 Z " fill="#D73E42" transform="translate(284.06640625,430.90234375)"/>
<path d="M0 0 C9.41972075 0.31294753 18.15916456 1.61441995 27 5 C27.33 5.66 27.66 6.32 28 7 C25.03 7 22.06 7 19 7 C19 6.34 19 5.68 19 5 C13.39 4.34 7.78 3.68 2 3 C2 2.34 2 1.68 2 1 C1.34 0.67 0.68 0.34 0 0 Z " fill="#D54549" transform="translate(285,60)"/>
<path d="M0 0 C0.33 0 0.66 0 1 0 C1.33 1.98 1.66 3.96 2 6 C1.01 6.33 0.02 6.66 -1 7 C-0.67 9.97 -0.34 12.94 0 16 C-1.32 16.33 -2.64 16.66 -4 17 C-4 18.65 -4 20.3 -4 22 C-4.99 22.33 -5.98 22.66 -7 23 C-5.34150967 14.98396341 -3.33032995 7.48901608 0 0 Z " fill="#DF2F3A" transform="translate(293,175)"/>
<path d="M0 0 C0 3.10551666 -0.5393715 4.35261084 -2 7 C-1.67 6.34 -1.34 5.68 -1 5 C-0.34 5 0.32 5 1 5 C1 6.65 1 8.3 1 10 C-0.32 10.33 -1.64 10.66 -3 11 C-2.67 12.65 -2.34 14.3 -2 16 C-6.875 11.5 -6.875 11.5 -8 7 C-5.36 4.69 -2.72 2.38 0 0 Z " fill="#DF3A42" transform="translate(155,144)"/>
<path d="M0 0 C0.33 0.66 0.66 1.32 1 2 C3.11956819 2.2524811 5.24076809 2.49535357 7.36669922 2.68701172 C11.8641757 3.22157178 16.1880275 4.41672841 20.5625 5.5625 C21.47580078 5.79646484 22.38910156 6.03042969 23.33007812 6.27148438 C25.55484564 6.84223625 27.77802897 7.41847478 30 8 C30 8.33 30 8.66 30 9 C27.95775363 8.88485851 25.91619841 8.75742674 23.875 8.625 C22.73804688 8.55539063 21.60109375 8.48578125 20.4296875 8.4140625 C17.02671044 8.00322472 14.21641717 7.15247645 11 6 C9.42254274 5.62051736 7.83935298 5.26359139 6.25 4.9375 C3.93493946 4.46110149 2.11754755 4.05877378 0 3 C0 2.01 0 1.02 0 0 Z " fill="#D74E54" transform="translate(322,211)"/>
<path d="M0 0 C0.33 0 0.66 0 1 0 C0.67 3.96 0.34 7.92 0 12 C-0.66 12 -1.32 12 -2 12 C-2.66 15.3 -3.32 18.6 -4 22 C-4.99 22.33 -5.98 22.66 -7 23 C-7.73323796 25.01508358 -7.73323796 25.01508358 -8 27 C-8.66 27 -9.32 27 -10 27 C-9.74347656 26.36191406 -9.48695313 25.72382813 -9.22265625 25.06640625 C-7.61289234 21.02913893 -6.0218014 16.98481843 -4.4375 12.9375 C-3.96280273 11.73383789 -3.96280273 11.73383789 -3.47851562 10.50585938 C-3.17494141 9.72919922 -2.87136719 8.95253906 -2.55859375 8.15234375 C-2.28329834 7.45101318 -2.00800293 6.74968262 -1.72436523 6.02709961 C-1.01283885 4.03592889 -0.47623441 2.05886907 0 0 Z " fill="#DB5D61" transform="translate(173,288)"/>
<path d="M0 0 C0 0.66 0 1.32 0 2 C-0.61875 2.0825 -1.2375 2.165 -1.875 2.25 C-4.18437567 2.81258459 -4.18437567 2.81258459 -5.25 5.0625 C-5.4975 5.701875 -5.745 6.34125 -6 7 C-8.31 6.34 -10.62 5.68 -13 5 C-13 5.99 -13 6.98 -13 8 C-15.31 7.67 -17.62 7.34 -20 7 C-16.48227372 3.48227372 -12.64417331 2.53506918 -7.875 1.375 C-6.29332031 0.98441406 -6.29332031 0.98441406 -4.6796875 0.5859375 C-2 0 -2 0 0 0 Z " fill="#DC333B" transform="translate(202,62)"/>
<path d="M0 0 C0.99 0.33 1.98 0.66 3 1 C3.33 2.98 3.66 4.96 4 7 C4.66 7 5.32 7 6 7 C6.99 9.97 7.98 12.94 9 16 C9.33 16 9.66 16 10 16 C10 18.31 10 20.62 10 23 C9.34 23.33 8.68 23.66 8 24 C7.84144531 23.34515625 7.68289062 22.6903125 7.51953125 22.015625 C5.85890568 15.51991837 3.66607721 9.48143972 0.98828125 3.3359375 C0 1 0 1 0 0 Z " fill="#D95052" transform="translate(165,181)"/>
<path d="M0 0 C2.19050021 0.09017996 4.378466 0.24666208 6.5625 0.4375 C7.76003906 0.53933594 8.95757812 0.64117187 10.19140625 0.74609375 C11.11824219 0.82988281 12.04507813 0.91367188 13 1 C13 3.64 13 6.28 13 9 C12.67 9 12.34 9 12 9 C12 7.02 12 5.04 12 3 C8.37 3 4.74 3 1 3 C1 7.29 1 11.58 1 16 C0.67 16 0.34 16 0 16 C-0.19389096 13.5211787 -0.38040123 11.04219069 -0.5625 8.5625 C-0.61857422 7.85544922 -0.67464844 7.14839844 -0.73242188 6.41992188 C-0.86190993 4.61572163 -0.93521608 2.80768048 -1 1 C-0.67 0.67 -0.34 0.34 0 0 Z " fill="#EA6B70" transform="translate(219,245)"/>
<path d="M0 0 C0.99 0.33 1.98 0.66 3 1 C2.57847656 2.22976562 2.15695312 3.45953125 1.72265625 4.7265625 C1.16902921 6.35929309 0.61565725 7.99211019 0.0625 9.625 C-0.35418945 10.83736328 -0.35418945 10.83736328 -0.77929688 12.07421875 C-2.22953216 16.37250646 -3.42203982 20.47874188 -4 25 C-6.56687367 21.1496895 -5.83288724 19.41430237 -5 15 C-4.34 15 -3.68 15 -3 15 C-3.020625 14.195625 -3.04125 13.39125 -3.0625 12.5625 C-3 10 -3 10 -2 9 C-1.60851239 7.48834346 -1.26027543 5.96530368 -0.9375 4.4375 C-0.76089844 3.61121094 -0.58429688 2.78492188 -0.40234375 1.93359375 C-0.26957031 1.29550781 -0.13679688 0.65742188 0 0 Z " fill="#D8565A" transform="translate(329,187)"/>
<path d="M0 0 C0.66 0 1.32 0 2 0 C4.53494611 6.58347654 6.89115006 13.0142454 8 20 C7.34 20.66 6.68 21.32 6 22 C5.70996094 21.04287109 5.70996094 21.04287109 5.4140625 20.06640625 C5.15367187 19.24011719 4.89328125 18.41382813 4.625 17.5625 C4.24214844 16.32693359 4.24214844 16.32693359 3.8515625 15.06640625 C3.19117773 12.82201984 3.19117773 12.82201984 1 12 C1.33 10.02 1.66 8.04 2 6 C1.34 6 0.68 6 0 6 C0 4.02 0 2.04 0 0 Z " fill="#DC454C" transform="translate(425,173)"/>
<path d="M0 0 C0.66 0.99 1.32 1.98 2 3 C1.54625 3.37125 1.0925 3.7425 0.625 4.125 C-1.45984059 6.53058529 -2.02135035 8.99880775 -3 12 C-3.99 12.495 -3.99 12.495 -5 13 C-5.65213292 15.02463255 -5.65213292 15.02463255 -6 17 C-6.66 17 -7.32 17 -8 17 C-8 17.99 -8 18.98 -8 20 C-8.66 20 -9.32 20 -10 20 C-10.33 21.32 -10.66 22.64 -11 24 C-12 21 -12 21 -11.22729492 19.0546875 C-10.81584229 18.33539063 -10.40438965 17.61609375 -9.98046875 16.875 C-9.53509766 16.08609375 -9.08972656 15.2971875 -8.63085938 14.484375 C-8.15455078 13.66453125 -7.67824219 12.8446875 -7.1875 12 C-6.72279297 11.18015625 -6.25808594 10.3603125 -5.77929688 9.515625 C-3.93349755 6.2742213 -2.06999516 3.10499274 0 0 Z " fill="#D54B57" transform="translate(91,140)"/>
<path d="M0 0 C1.98 0 3.96 0 6 0 C6 0.66 6 1.32 6 2 C1.61538462 5 1.61538462 5 -1 5 C-1 5.66 -1 6.32 -1 7 C-3.75 8.625 -3.75 8.625 -7 10 C-9.375 9.1875 -9.375 9.1875 -11 8 C-11 7.67 -11 7.34 -11 7 C-9.02 7 -7.04 7 -5 7 C-4.67 5.68 -4.34 4.36 -4 3 C-2.35 3 -0.7 3 1 3 C0.67 2.01 0.34 1.02 0 0 Z " fill="#D8474F" transform="translate(330,355)"/>
<path d="M0 0 C0.33 0.99 0.66 1.98 1 3 C0.67 3.66 0.34 4.32 0 5 C-0.66 5 -1.32 5 -2 5 C-2 5.66 -2 6.32 -2 7 C-2.66 7 -3.32 7 -4 7 C-4.144375 7.61875 -4.28875 8.2375 -4.4375 8.875 C-5 11 -5 11 -6 13 C-7.32 13 -8.64 13 -10 13 C-10 13.99 -10 14.98 -10 16 C-11.32 15.67 -12.64 15.34 -14 15 C-5.72093023 5.41860465 -5.72093023 5.41860465 -3 3 C-2.34 3 -1.68 3 -1 3 C-0.67 2.01 -0.34 1.02 0 0 Z " fill="#D8464E" transform="translate(365,342)"/>
<path d="M0 0 C0 2.79784711 -0.37195775 4.9790678 -1 7.6875 C-1.185625 8.49574219 -1.37125 9.30398437 -1.5625 10.13671875 C-1.7790625 11.05904297 -1.7790625 11.05904297 -2 12 C-3.32 12.33 -4.64 12.66 -6 13 C-6 14.32 -6 15.64 -6 17 C-7.32 16.67 -8.64 16.34 -10 16 C-8.52260269 13.5197633 -7.04317579 11.0407783 -5.5625 8.5625 C-5.14162109 7.85544922 -4.72074219 7.14839844 -4.28710938 6.41992188 C-1.11328125 1.11328125 -1.11328125 1.11328125 0 0 Z " fill="#DC4A50" transform="translate(313,138)"/>
<path d="M0 0 C0 0.66 0 1.32 0 2 C-0.99 2 -1.98 2 -3 2 C-3 2.66 -3 3.32 -3 4 C-3.66 4 -4.32 4 -5 4 C-5 14.89 -5 25.78 -5 37 C-5.33 37 -5.66 37 -6 37 C-6 25.12 -6 13.24 -6 1 C-2 0 -2 0 0 0 Z " fill="#C12C30" transform="translate(144,221)"/>
<path d="M0 0 C-1.43228816 1.31818554 -2.87102484 2.62936704 -4.3125 3.9375 C-5.11300781 4.66839844 -5.91351563 5.39929688 -6.73828125 6.15234375 C-9 8 -9 8 -12 9 C-12.33 8.01 -12.66 7.02 -13 6 C-11.68 6 -10.36 6 -9 6 C-8.9175 5.05125 -8.835 4.1025 -8.75 3.125 C-8 0 -8 0 -6.1875 -1.5 C-3.40148082 -2.13680438 -2.43524515 -1.34780864 0 0 Z " fill="#E24045" transform="translate(378,388)"/>
<path d="M0 0 C0.66 1.65 1.32 3.3 2 5 C0.68 5.33 -0.64 5.66 -2 6 C-2 5.34 -2 4.68 -2 4 C-2.53625 4.33 -3.0725 4.66 -3.625 5 C-6.5391061 6.22699204 -8.86867708 6.14233286 -12 6 C-6 -0.15789474 -6 -0.15789474 0 0 Z " fill="#DA414A" transform="translate(180,128)"/>
<path d="M0 0 C0.33 0.99 0.66 1.98 1 3 C1.66 3.33 2.32 3.66 3 4 C2.360625 4.28875 1.72125 4.5775 1.0625 4.875 C-1.15206079 5.82823451 -1.15206079 5.82823451 -2 8 C-2.99 7.67 -3.98 7.34 -5 7 C-5.33 7.99 -5.66 8.98 -6 10 C-7.32 9.67 -8.64 9.34 -10 9 C-6.7 6.03 -3.4 3.06 0 0 Z " fill="#E03E48" transform="translate(133,95)"/>
<path d="M0 0 C6.54849313 1.16204993 12.74538144 2.73383385 19 5 C18.38640625 5.29648438 17.7728125 5.59296875 17.140625 5.8984375 C14.88567831 7.05882978 12.99071996 8.43586289 11 10 C11 8.68 11 7.36 11 6 C10.01 5.67 9.02 5.34 8 5 C8 4.34 8 3.68 8 3 C7.05125 3.020625 6.1025 3.04125 5.125 3.0625 C2 3 2 3 0 2 C0 1.34 0 0.68 0 0 Z " fill="#DE494D" transform="translate(353,220)"/>
<path d="M0 0 C0.66 0.66 1.32 1.32 2 2 C1.04258894 3.60471728 0.08403595 5.20875329 -0.875 6.8125 C-1.40867187 7.70582031 -1.94234375 8.59914062 -2.4921875 9.51953125 C-3.61883092 11.37294724 -4.79686611 13.19529917 -6 15 C-6 12.03 -6 9.06 -6 6 C-5.34 6 -4.68 6 -4 6 C-3.67 4.35 -3.34 2.7 -3 1 C-2.01 0.67 -1.02 0.34 0 0 Z " fill="#DE363E" transform="translate(119,169)"/>
<path d="M0 0 C0 0.99 0 1.98 0 3 C-0.99 3.33 -1.98 3.66 -3 4 C-3.33 3.67 -3.66 3.34 -4 3 C-6.86267567 2.92674832 -9.700719 2.90761795 -12.5625 2.9375 C-13.36880859 2.94201172 -14.17511719 2.94652344 -15.00585938 2.95117188 C-17.00393756 2.96299482 -19.00197783 2.98093086 -21 3 C-21 2.67 -21 2.34 -21 2 C-18.62733173 1.46569684 -16.25293117 0.94737476 -13.875 0.4375 C-12.87726563 0.21030273 -12.87726563 0.21030273 -11.859375 -0.02148438 C-7.59513257 -0.92031979 -4.24075907 -0.9974371 0 0 Z " fill="#DE4B4D" transform="translate(223,59)"/>
<path d="M0 0 C1.140625 1.49609375 1.140625 1.49609375 2 4 C1.38257756 6.82208653 0.68265885 9.34997649 -0.25 12.0625 C-0.48074219 12.78244141 -0.71148437 13.50238281 -0.94921875 14.24414062 C-2.01745207 17.4941047 -3.09299747 20.13949621 -5 23 C-5.32852366 17.85312938 -4.55199533 14.06131884 -2.80078125 9.22265625 C-1.70721951 6.18735561 -0.85981402 3.10855836 0 0 Z " fill="#DA4F53" transform="translate(212,292)"/>
<path d="M0 0 C0 0.33 0 0.66 0 1 C-8.65708853 2.10630288 -17.30737328 3.20596198 -26 4 C-25.39800781 3.70480469 -24.79601562 3.40960938 -24.17578125 3.10546875 C-22.47683895 2.24227186 -20.82158407 1.29295044 -19.1875 0.3125 C-13.36964987 -2.25042957 -6.15952765 -0.65796756 0 0 Z " fill="#DA4E52" transform="translate(240,96)"/>
<path d="M0 0 C1.08539063 0.27714844 2.17078125 0.55429687 3.2890625 0.83984375 C4.73434281 1.2058563 6.17965712 1.5717346 7.625 1.9375 C8.33785156 2.11990234 9.05070313 2.30230469 9.78515625 2.49023438 C13.83969313 3.51316799 17.85947059 4.37957367 22 5 C22 5.33 22 5.66 22 6 C17.545 6.495 17.545 6.495 13 7 C13 6.34 13 5.68 13 5 C10.36 5 7.72 5 5 5 C5 4.34 5 3.68 5 3 C3.35 3 1.7 3 0 3 C0 2.01 0 1.02 0 0 Z " fill="#D95559" transform="translate(200,388)"/>
<path d="M0 0 C0.97810945 3.40526993 0.81907717 5.54167419 0 9 C0 9.66 0 10.32 0 11 C-0.99 11 -1.98 11 -3 11 C-3.10957031 11.56589844 -3.21914063 12.13179687 -3.33203125 12.71484375 C-3.49058594 13.44832031 -3.64914062 14.18179688 -3.8125 14.9375 C-3.96332031 15.66839844 -4.11414063 16.39929688 -4.26953125 17.15234375 C-4.51058594 17.76207031 -4.75164062 18.37179688 -5 19 C-5.99 19.33 -6.98 19.66 -8 20 C-7.35014905 15.28629244 -5.48438608 11.42313556 -3.4375 7.1875 C-2.9434668 6.14819336 -2.9434668 6.14819336 -2.43945312 5.08789062 C-1.63127749 3.38955052 -0.81631623 1.69444231 0 0 Z " fill="#D95358" transform="translate(302,155)"/>
<path d="M0 0 C2.31 0 4.62 0 7 0 C3.84812226 2.10125182 0.65271974 4.12300399 -2.5625 6.125 C-3.15224609 6.49753906 -3.74199219 6.87007813 -4.34960938 7.25390625 C-8.77051854 10 -8.77051854 10 -11 10 C-10.67 8.68 -10.34 7.36 -10 6 C-8.68 6 -7.36 6 -6 6 C-6 5.01 -6 4.02 -6 3 C-4.02 2.67 -2.04 2.34 0 2 C0 1.34 0 0.68 0 0 Z " fill="#DC555E" transform="translate(178,111)"/>
<path d="M0 0 C6.14458155 2.16867584 11.00876166 5.88956842 16 10 C14.35 10.33 12.7 10.66 11 11 C11 10.34 11 9.68 11 9 C10.34 9 9.68 9 9 9 C8.54625 8.505 8.0925 8.01 7.625 7.5 C5.87871033 5.54781326 5.87871033 5.54781326 2 6 C1.34 4.02 0.68 2.04 0 0 Z " fill="#DB5255" transform="translate(346,82)"/>
<path d="M0 0 C1 2 1 2 0.25 5.5625 C-0.1625 6.696875 -0.575 7.83125 -1 9 C-1.99 9.33 -2.98 9.66 -4 10 C-4 11.32 -4 12.64 -4 14 C-5.65 14.33 -7.3 14.66 -9 15 C-7.68944504 12.68637791 -6.3766597 10.37407322 -5.0625 8.0625 C-4.50272461 7.0734668 -4.50272461 7.0734668 -3.93164062 6.06445312 C-1.11328125 1.11328125 -1.11328125 1.11328125 0 0 Z " fill="#DC5358" transform="translate(381,319)"/>
<path d="M0 0 C0 0.99 0 1.98 0 3 C-6.6 2.67 -13.2 2.34 -20 2 C-20 1.67 -20 1.34 -20 1 C-13.34362157 -0.23839599 -6.7528064 -0.09139136 0 0 Z " fill="#DA3F43" transform="translate(238,433)"/>
<path d="M0 0 C-1.8331267 5.99932374 -4.07321751 11.44920563 -7 17 C-9.046875 13.28125 -9.046875 13.28125 -8.625 10.75 C-8.41875 10.1725 -8.2125 9.595 -8 9 C-6.68 8.67 -5.36 8.34 -4 8 C-4 5.69 -4 3.38 -4 1 C-2 0 -2 0 0 0 Z " fill="#DF4850" transform="translate(205,320)"/>
<path d="M0 0 C0.33 0 0.66 0 1 0 C1 1.65 1 3.3 1 5 C3.31 5 5.62 5 8 5 C8 4.34 8 3.68 8 3 C8.99 3 9.98 3 11 3 C11 3.99 11 4.98 11 6 C9.73160474 6.50615298 8.46016898 7.00469099 7.1875 7.5 C6.12595703 7.91765625 6.12595703 7.91765625 5.04296875 8.34375 C3 9 3 9 0 9 C0 6.03 0 3.06 0 0 Z " fill="#D43F44" transform="translate(138,258)"/>
<path d="M0 0 C3.34905453 3.34905453 3.89470285 5.49378854 5 10 C4.401875 10.144375 3.80375 10.28875 3.1875 10.4375 C1.43849596 10.8872439 -0.28677023 11.42892341 -2 12 C-1.34 8.04 -0.68 4.08 0 0 Z " fill="#E33B44" transform="translate(419,159)"/>
<path d="M0 0 C0.66 0 1.32 0 2 0 C2.21133202 7.04440079 2.07965362 13.24112575 0 20 C-2.12936806 16.80594791 -2.23418211 16.50812339 -1.7578125 12.98828125 C-1.66113281 12.23095703 -1.56445312 11.47363281 -1.46484375 10.69335938 C-1.35269531 9.90767578 -1.24054688 9.12199219 -1.125 8.3125 C-1.02058594 7.51521484 -0.91617187 6.71792969 -0.80859375 5.89648438 C-0.54948177 3.92958889 -0.27610346 1.96458233 0 0 Z " fill="#D85157" transform="translate(437,266)"/>
<path d="M0 0 C4.85963179 0.60745397 8.7405518 2.72758967 13 5 C13 5.33 13 5.66 13 6 C10.36 6.66 7.72 7.32 5 8 C3 5 3 5 3 2 C2.01 2 1.02 2 0 2 C0 1.34 0 0.68 0 0 Z " fill="#DD4952" transform="translate(405,239)"/>
<path d="M0 0 C0.66 0 1.32 0 2 0 C2 1.98 2 3.96 2 6 C1.01 6 0.02 6 -1 6 C-1.66 6.66 -2.32 7.32 -3 8 C-5.31765729 8.71927295 -7.65095874 9.3909893 -10 10 C-7.59757773 6.82537057 -5.38286724 4.14248259 -2 2 C-1.34 2 -0.68 2 0 2 C0 1.34 0 0.68 0 0 Z " fill="#D54249" transform="translate(166,134)"/>
<path d="M0 0 C2.54000554 3.78157541 1.93099159 6.68666887 1.25 11.0625 C1.06953125 12.29097656 0.8890625 13.51945313 0.703125 14.78515625 C0 18 0 18 -2 21 C-2.22424141 13.63740707 -1.90120099 7.12950371 0 0 Z " fill="#D55559" transform="translate(63,207)"/>
<path d="M0 0 C0.66 0 1.32 0 2 0 C1.31195504 6.19240462 -0.28048715 12.01955594 -2 18 C-4.46654645 14.30018032 -4.02294891 13.26166428 -3.25 9 C-2.97929688 7.4221875 -2.97929688 7.4221875 -2.703125 5.8125 C-2 3 -2 3 0 0 Z " fill="#DF5D62" transform="translate(107,193)"/>
<path d="M0 0 C0.99 0 1.98 0 3 0 C3.33 0.66 3.66 1.32 4 2 C4.99 1.34 5.98 0.68 7 0 C7 2.97 7 5.94 7 9 C6.01 9 5.02 9 4 9 C0 2.25 0 2.25 0 0 Z " fill="#E03840" transform="translate(375,162)"/>
<path d="M0 0 C2 1 2 1 2.875 3.1875 C3.04992011 7.12320244 1.3416585 8.94874801 -1 12 C-1.99 10.68 -2.98 9.36 -4 8 C-3.01 7.67 -2.02 7.34 -1 7 C-1.66 5.68 -2.32 4.36 -3 3 C-2.01 2.67 -1.02 2.34 0 2 C0 1.34 0 0.68 0 0 Z " fill="#E7393F" transform="translate(344,156)"/>
<path d="M0 0 C0.99 0 1.98 0 3 0 C3.66 2.97 4.32 5.94 5 9 C0.46213776 6.73106888 -0.94678157 4.90133466 -4 1 C-2.68 1.33 -1.36 1.66 0 2 C0 1.34 0 0.68 0 0 Z " fill="#DD3D43" transform="translate(351,130)"/>
<path d="M0 0 C0.33 0.99 0.66 1.98 1 3 C2.65 2.67 4.3 2.34 6 2 C6.33 2.99 6.66 3.98 7 5 C5.68 6.32 4.36 7.64 3 9 C3.66 9.33 4.32 9.66 5 10 C4.34 10.66 3.68 11.32 3 12 C2.29773859 10.75823305 1.61370891 9.50614401 0.9375 8.25 C0.36322266 7.20585937 0.36322266 7.20585937 -0.22265625 6.140625 C-1.1312406 3.63859372 -0.88336837 2.4667645 0 0 Z " fill="#E23C43" transform="translate(296,319)"/>
<path d="M0 0 C0 0.66 0 1.32 0 2 C-1.53125 3.2890625 -1.53125 3.2890625 -3.5 4.625 C-4.47453125 5.29402344 -4.47453125 5.29402344 -5.46875 5.9765625 C-5.9740625 6.31429688 -6.479375 6.65203125 -7 7 C-7.33 6.67 -7.66 6.34 -8 6 C-10.69082872 6.17635452 -13.32851446 6.61835921 -16 7 C-13.73725135 4.73725135 -11.97142905 4.07338058 -9 2.9375 C-1.37358491 0 -1.37358491 0 0 0 Z " fill="#DB5157" transform="translate(317,381)"/>
<path d="M0 0 C2 2 2 2 2 5 C3.32 5.33 4.64 5.66 6 6 C6 6.66 6 7.32 6 8 C2.7 7.01 -0.6 6.02 -4 5 C-4 4.01 -4 3.02 -4 2 C-2.68 1.34 -1.36 0.68 0 0 Z " fill="#DE434D" transform="translate(349,257)"/>
<path d="M0 0 C1.98036486 0.97674104 3.95926133 1.95645982 5.9375 2.9375 C7.03964844 3.48277344 8.14179688 4.02804688 9.27734375 4.58984375 C12 6 12 6 13 7 C13.14115161 9.67058851 13.04247107 12.32432238 13 15 C12.67 15 12.34 15 12 15 C11.67 12.69 11.34 10.38 11 8 C7.49857643 6.52601704 7.49857643 6.52601704 3.8125 5.6875 C3.214375 5.460625 2.61625 5.23375 2 5 C1.28011067 3.35562122 0.60935064 1.68846499 0 0 Z " fill="#E1686E" transform="translate(427,250)"/>
<path d="M0 0 C0.66 1.32 1.32 2.64 2 4 C2.66 4 3.32 4 4 4 C4.66 5.98 5.32 7.96 6 10 C5.34 10.66 4.68 11.32 4 12 C4 11.01 4 10.02 4 9 C2.68 9 1.36 9 0 9 C-0.33 9.66 -0.66 10.32 -1 11 C-1.33 9.68 -1.66 8.36 -2 7 C-0.68 7.33 0.64 7.66 2 8 C1.67 7.4225 1.34 6.845 1 6.25 C0 4 0 4 0 0 Z " fill="#E03E46" transform="translate(188,141)"/>
<path d="M0 0 C8.57142857 0.85714286 8.57142857 0.85714286 12 3 C12 3.66 12 4.32 12 5 C13.32 5 14.64 5 16 5 C16.66 6.32 17.32 7.64 18 9 C13.98696492 7.443154 10.0907072 5.68861143 6.1875 3.875 C4.44533203 3.06675781 4.44533203 3.06675781 2.66796875 2.2421875 C1.78753906 1.83226563 0.90710938 1.42234375 0 1 C0 0.67 0 0.34 0 0 Z " fill="#DD5B60" transform="translate(309,108)"/>
<path d="M0 0 C2.31 0.33 4.62 0.66 7 1 C7.33 3.64 7.66 6.28 8 9 C4.36905358 6.35039045 2.10148204 3.98175544 0 0 Z " fill="#E44951" transform="translate(101,365)"/>
<path d="M0 0 C0.33 0.66 0.66 1.32 1 2 C-0.3984375 4.6015625 -0.3984375 4.6015625 -2.375 7.625 C-3.34566406 9.12933594 -3.34566406 9.12933594 -4.3359375 10.6640625 C-4.88507813 11.43492187 -5.43421875 12.20578125 -6 13 C-6.33 13 -6.66 13 -7 13 C-6.67 10.03 -6.34 7.06 -6 4 C-4.35 3.67 -2.7 3.34 -1 3 C-0.67 2.01 -0.34 1.02 0 0 Z " fill="#DE5760" transform="translate(193,342)"/>
<path d="M0 0 C2.97 0 5.94 0 9 0 C2.64126793 3.17936603 -1.98023269 4.24206094 -9 4 C-9 3.34 -9 2.68 -9 2 C-6.03 2 -3.06 2 0 2 C0 1.34 0 0.68 0 0 Z " fill="#D94B4E" transform="translate(301,427)"/>
<path d="M0 0 C1.73017508 0.45451184 3.45909877 0.91378857 5.1875 1.375 C6.15042969 1.63023437 7.11335938 1.88546875 8.10546875 2.1484375 C10.82210207 2.94766296 13.39137175 3.9031362 16 5 C16 5.33 16 5.66 16 6 C12.37 5.67 8.74 5.34 5 5 C5 4.34 5 3.68 5 3 C2.03 2.505 2.03 2.505 -1 2 C-0.67 1.34 -0.34 0.68 0 0 Z " fill="#DA5258" transform="translate(373,226)"/>
<path d="M0 0 C0.33 1.32 0.66 2.64 1 4 C0.401875 4.391875 -0.19625 4.78375 -0.8125 5.1875 C-3.2497346 7.20692295 -4.39605897 9.30246282 -6 12 C-6.66 12 -7.32 12 -8 12 C-8.33 12.66 -8.66 13.32 -9 14 C-8.55491959 8.95575532 -6.39019075 6.55556591 -3 3 C-2.34 3 -1.68 3 -1 3 C-0.67 2.01 -0.34 1.02 0 0 Z " fill="#D8474B" transform="translate(113,113)"/>
<path d="M0 0 C0.33 0.66 0.66 1.32 1 2 C0.34 2 -0.32 2 -1 2 C-1 2.66 -1 3.32 -1 4 C-1.99 4 -2.98 4 -4 4 C-4.33 5.65 -4.66 7.3 -5 9 C-7.31 8.67 -9.62 8.34 -12 8 C-8.2064129 4.78119883 -4.34170523 2.3836813 0 0 Z " fill="#DB4B4F" transform="translate(158,79)"/>
<path d="M0 0 C3.34865457 1.11621819 3.71566145 1.67474229 5.5625 4.5 C7.31619395 7.25536594 7.31619395 7.25536594 10 9 C10 9.66 10 10.32 10 11 C8.35 10.67 6.7 10.34 5 10 C4.67 8.35 4.34 6.7 4 5 C3.01 5 2.02 5 1 5 C0.67 3.35 0.34 1.7 0 0 Z " fill="#DA4F53" transform="translate(132,340)"/>
<path d="M0 0 C0.66 0.66 1.32 1.32 2 2 C0.02 6.29 -1.96 10.58 -4 15 C-4.66 14.67 -5.32 14.34 -6 14 C-6 13.01 -6 12.02 -6 11 C-5.34 11 -4.68 11 -4 11 C-4 9.68 -4 8.36 -4 7 C-3.34 7 -2.68 7 -2 7 C-2 5.68 -2 4.36 -2 3 C-1.34 3 -0.68 3 0 3 C0 2.01 0 1.02 0 0 Z " fill="#DB5157" transform="translate(337,172)"/>
<path d="M0 0 C1.32 0 2.64 0 4 0 C2.61964507 2.85059343 1.10703513 5.55880904 -0.5625 8.25 C-0.99691406 8.95640625 -1.43132812 9.6628125 -1.87890625 10.390625 C-2.43384766 11.18726563 -2.43384766 11.18726563 -3 12 C-3.33 12 -3.66 12 -4 12 C-4.33 10.02 -4.66 8.04 -5 6 C-3.35 5.67 -1.7 5.34 0 5 C0 3.35 0 1.7 0 0 Z " fill="#DD4E56" transform="translate(125,157)"/>
<path d="M0 0 C1.32 0.66 2.64 1.32 4 2 C2.86280581 5.41158256 1.95657056 6.11854601 -1 8 C-1.66 8 -2.32 8 -3 8 C-3.33 6.68 -3.66 5.36 -4 4 C-3.34 4 -2.68 4 -2 4 C-1.34 2.68 -0.68 1.36 0 0 Z " fill="#E24144" transform="translate(156,123)"/>
<path d="M0 0 C1.24546405 2.49092811 0.7767578 3.41080733 0 6 C-0.66 6 -1.32 6 -2 6 C-2.0825 6.598125 -2.165 7.19625 -2.25 7.8125 C-3.20455872 10.5966296 -4.57132271 11.43311142 -7 13 C-7.66 12.67 -8.32 12.34 -9 12 C-6.03 8.04 -3.06 4.08 0 0 Z " fill="#DB5759" transform="translate(157,325)"/>
<path d="M0 0 C0.99 0.33 1.98 0.66 3 1 C1.02 4.96 -0.96 8.92 -3 13 C-3.33 13 -3.66 13 -4 13 C-4 11.35 -4 9.7 -4 8 C-3.34 8 -2.68 8 -2 8 C-2 5.69 -2 3.38 -2 1 C-1.34 0.67 -0.68 0.34 0 0 Z " fill="#DA444D" transform="translate(423,320)"/>
<path d="M0 0 C1.32 0.66 2.64 1.32 4 2 C3.34 3.98 2.68 5.96 2 8 C1.34 8 0.68 8 0 8 C0 9.65 0 11.3 0 13 C-0.66 13 -1.32 13 -2 13 C-1.34 8.71 -0.68 4.42 0 0 Z " fill="#DE3F48" transform="translate(178,266)"/>
<path d="M0 0 C2.97 0 5.94 0 9 0 C6.94876752 2.05123248 5.72994937 2.64147118 3.0625 3.625 C2.02802734 4.01558594 2.02802734 4.01558594 0.97265625 4.4140625 C-1 5 -1 5 -4 5 C-4 4.01 -4 3.02 -4 2 C-2.68 2 -1.36 2 0 2 C0 1.34 0 0.68 0 0 Z " fill="#DB5A60" transform="translate(195,103)"/>
<path d="M0 0 C1.32 0.33 2.64 0.66 4 1 C2.720327 3.55934601 1.75798964 3.6989233 -0.875 4.6875 C-1.57367188 4.95949219 -2.27234375 5.23148437 -2.9921875 5.51171875 C-5 6 -5 6 -8 5 C-7.34 4.01 -6.68 3.02 -6 2 C-2.875 1.8125 -2.875 1.8125 0 2 C0 1.34 0 0.68 0 0 Z " fill="#DC4850" transform="translate(327,417)"/>
<path d="M0 0 C0.33 0.66 0.66 1.32 1 2 C1.66 2.33 2.32 2.66 3 3 C-0.96 4.98 -4.92 6.96 -9 9 C-9.33 8.01 -9.66 7.02 -10 6 C-8.35 6 -6.7 6 -5 6 C-4.67 5.01 -4.34 4.02 -4 3 C-2.68 3 -1.36 3 0 3 C0 2.01 0 1.02 0 0 Z " fill="#D7474C" transform="translate(342,409)"/>
<path d="M0 0 C2.55570992 1.0007622 3.79700949 1.68423699 5.30078125 4.0234375 C5.63464844 4.79945313 5.96851562 5.57546875 6.3125 6.375 C6.65925781 7.14585937 7.00601563 7.91671875 7.36328125 8.7109375 C8.07011845 11.2520823 7.86878073 12.54499381 7 15 C6.20576139 13.43880578 5.41472877 11.87598036 4.625 10.3125 C3.96371094 9.00732422 3.96371094 9.00732422 3.2890625 7.67578125 C2.07335732 5.15227201 1.00739042 2.61262468 0 0 Z " fill="#D6555C" transform="translate(77,326)"/>
<path d="M0 0 C2.31 0.33 4.62 0.66 7 1 C3.59568053 3.26954631 1.83475798 3.36549949 -2.1875 3.625 C-3.27417969 3.69976562 -4.36085937 3.77453125 -5.48046875 3.8515625 C-6.31191406 3.90054688 -7.14335937 3.94953125 -8 4 C-8 3.34 -8 2.68 -8 2 C-5.36 1.67 -2.72 1.34 0 1 C0 0.67 0 0.34 0 0 Z " fill="#D8575A" transform="translate(244,249)"/>
<path d="M0 0 C0.66 0 1.32 0 2 0 C1.67 0.99 1.34 1.98 1 3 C0.34 2.34 -0.32 1.68 -1 1 C-0.67 0.67 -0.34 0.34 0 0 Z M-10 2 C-7.03 2 -4.06 2 -1 2 C-1.66 3.32 -2.32 4.64 -3 6 C-6.61855575 5.37611108 -7.1709277 4.8290723 -10 2 Z " fill="#E3363B" transform="translate(177,356)"/>
<path d="M0 0 C0 2.83967231 -0.40267181 5.23735711 -1 8 C-2.98 8.33 -4.96 8.66 -7 9 C-6.67 7.68 -6.34 6.36 -6 5 C-5.34 5 -4.68 5 -4 5 C-3.67 4.01 -3.34 3.02 -3 2 C-2.01 1.34 -1.02 0.68 0 0 Z " fill="#DA3E49" transform="translate(321,129)"/>
<path d="M0 0 C-0.33 0.99 -0.66 1.98 -1 3 C0.32 3 1.64 3 3 3 C2.67 3.99 2.34 4.98 2 6 C-4.75 4.375 -4.75 4.375 -7 1 C-4 0 -4 0 0 0 Z " fill="#D93D44" transform="translate(301,100)"/>
<path d="M0 0 C1.98 0.99 1.98 0.99 4 2 C4 2.66 4 3.32 4 4 C4.61875 4.268125 5.2375 4.53625 5.875 4.8125 C8 6 8 6 10 9 C9.01 9 8.02 9 7 9 C6.67 8.01 6.34 7.02 6 6 C4.68 6 3.36 6 2 6 C1.34 4.02 0.68 2.04 0 0 Z " fill="#D44C4F" transform="translate(336,137)"/>
<path d="M0 0 C3.65316671 1.24976756 4.78065836 1.67098753 7 5 C6.01 5.495 6.01 5.495 5 6 C5 5.34 5 4.68 5 4 C1.7 4.33 -1.6 4.66 -5 5 C-4.01 4.67 -3.02 4.34 -2 4 C-2 3.34 -2 2.68 -2 2 C-1.34 2 -0.68 2 0 2 C0 1.34 0 0.68 0 0 Z " fill="#DC3D42" transform="translate(367,97)"/>
<path d="M0 0 C0.66 0.33 1.32 0.66 2 1 C1.01 2.485 1.01 2.485 0 4 C-0.99 4 -1.98 4 -3 4 C-3.66 5.32 -4.32 6.64 -5 8 C-5.99 8 -6.98 8 -8 8 C-6.49776416 3.79373966 -3.71449966 2.26099979 0 0 Z " fill="#DD5157" transform="translate(143,88)"/>
<path d="M0 0 C2.31 0.33 4.62 0.66 7 1 C7 1.66 7 2.32 7 3 C7.66 3 8.32 3 9 3 C8.67 4.32 8.34 5.64 8 7 C6.66382648 6.02471263 5.3311249 5.04466681 4 4.0625 C3.2575 3.51722656 2.515 2.97195313 1.75 2.41015625 C1.1725 1.94480469 0.595 1.47945313 0 1 C0 0.67 0 0.34 0 0 Z " fill="#DB4F53" transform="translate(130,394)"/>
<path d="M0 0 C2 1 2 1 2.66796875 2.890625 C4.38738561 10.6991046 4.38738561 10.6991046 3 15 C2.67 15 2.34 15 2 15 C0.73694665 9.92523206 -0.27036084 5.27203646 0 0 Z " fill="#DA5559" transform="translate(63,280)"/>
<path d="M0 0 C0.33 0 0.66 0 1 0 C1.33 1.98 1.66 3.96 2 6 C1.01 6.33 0.02 6.66 -1 7 C-1.12375 7.78375 -1.2475 8.5675 -1.375 9.375 C-2 12 -2 12 -4 14 C-3.36843005 8.94744036 -1.86540627 4.70406799 0 0 Z " fill="#D94F57" transform="translate(293,175)"/>
<path d="M0 0 C0.66 0.99 1.32 1.98 2 3 C1.67 3.66 1.34 4.32 1 5 C0.34 5 -0.32 5 -1 5 C-0.34 6.32 0.32 7.64 1 9 C0.34 9.66 -0.32 10.32 -1 11 C-1.99 11 -2.98 11 -4 11 C-3.21681311 7.08406554 -1.60820142 3.63593365 0 0 Z " fill="#DF5458" transform="translate(78,163)"/>
<path d="M0 0 C1.62723299 0.45034123 3.25173664 0.91055354 4.875 1.375 C5.77992188 1.63023438 6.68484375 1.88546875 7.6171875 2.1484375 C10 3 10 3 12 5 C8.7 5 5.4 5 2 5 C1.34 3.35 0.68 1.7 0 0 Z " fill="#D94C51" transform="translate(314,67)"/>
<path d="M0 0 C5.94 0.99 5.94 0.99 12 2 C11.67 2.99 11.34 3.98 11 5 C9.35153231 4.55123384 7.70626545 4.09069512 6.0625 3.625 C5.14597656 3.36976563 4.22945312 3.11453125 3.28515625 2.8515625 C1 2 1 2 0 0 Z " fill="#DB4046" transform="translate(169,418)"/>
<path d="M0 0 C0.33 0 0.66 0 1 0 C2.33898305 5.3559322 2.33898305 5.3559322 0.75 8.375 C-1 10 -1 10 -4 10 C-2.8905928 6.51329166 -1.73662334 3.22515763 0 0 Z " fill="#DB484F" transform="translate(162,315)"/>
<path d="M0 0 C-0.33 0.66 -0.66 1.32 -1 2 C-4.96 2 -8.92 2 -13 2 C-7.92858749 -0.53570625 -5.51630428 -1.37907607 0 0 Z " fill="#DD4F53" transform="translate(173,215)"/>
<path d="M0 0 C1.32 1.32 2.64 2.64 4 4 C2.35 6.31 0.7 8.62 -1 11 C-1.33 10.01 -1.66 9.02 -2 8 C-1.34 8 -0.68 8 0 8 C0 5.36 0 2.72 0 0 Z " fill="#D75F65" transform="translate(349,149)"/>
<path d="M0 0 C0.66 0.99 1.32 1.98 2 3 C1.54625 3.37125 1.0925 3.7425 0.625 4.125 C-1.47029394 6.54264685 -2.12013285 8.95430602 -3 12 C-3.66 12 -4.32 12 -5 12 C-4.52389341 7.00088076 -2.96837781 4.02167317 0 0 Z " fill="#DF565A" transform="translate(91,140)"/>
<path d="M0 0 C0.99 0 1.98 0 3 0 C1.73058503 3.91402949 0.48832306 5.79072873 -3 8 C-3 6.35 -3 4.7 -3 3 C-2.34 3 -1.68 3 -1 3 C-0.67 2.01 -0.34 1.02 0 0 Z " fill="#DA3338" transform="translate(133,147)"/>
<path d="M0 0 C0.66 1.32 1.32 2.64 2 4 C-0.80804268 6.96404505 -3.18315774 9.44499019 -7 11 C-6.01 9.02 -5.02 7.04 -4 5 C-3.34 5 -2.68 5 -2 5 C-1.34 3.35 -0.68 1.7 0 0 Z " fill="#D63F4A" transform="translate(99,129)"/>
<path d="M0 0 C2.97 0.495 2.97 0.495 6 1 C6 1.66 6 2.32 6 3 C5.34 3 4.68 3 4 3 C4 3.66 4 4.32 4 5 C2.02 5.99 2.02 5.99 0 7 C0 4.69 0 2.38 0 0 Z " fill="#E1494E" transform="translate(147,130)"/>
<path d="M0 0 C0.33 0.66 0.66 1.32 1 2 C0.54625 2.4125 0.0925 2.825 -0.375 3.25 C-2.05950374 5.06408095 -2.99265971 6.75285627 -4 9 C-5.98 9 -7.96 9 -10 9 C-9.360625 8.7525 -8.72125 8.505 -8.0625 8.25 C-7.381875 7.8375 -6.70125 7.425 -6 7 C-5.855625 6.360625 -5.71125 5.72125 -5.5625 5.0625 C-5 3 -5 3 -2.4375 1.25 C-1.2309375 0.63125 -1.2309375 0.63125 0 0 Z " fill="#D8393D" transform="translate(343,364)"/>
<path d="M0 0 C1.98 0.66 3.96 1.32 6 2 C6 2.66 6 3.32 6 4 C6.66 4.33 7.32 4.66 8 5 C7.34 6.32 6.68 7.64 6 9 C4.02 6.03 2.04 3.06 0 0 Z " fill="#DD4E57" transform="translate(366,151)"/>
<path d="M0 0 C3.63 0 7.26 0 11 0 C8.50494038 2.49505962 7.32671112 2.35948376 3.875 2.625 C2.96492187 2.69976562 2.05484375 2.77453125 1.1171875 2.8515625 C0.06917969 2.92503906 0.06917969 2.92503906 -1 3 C-0.67 2.01 -0.34 1.02 0 0 Z " fill="#E32D34" transform="translate(214,394)"/>
<path d="M0 0 C1.32 0.33 2.64 0.66 4 1 C4 3 4 3 2.125 5.125 C0 7 0 7 -2 7 C-1.125 2.25 -1.125 2.25 0 0 Z " fill="#DA3D43" transform="translate(388,372)"/>
<path d="M0 0 C0.66 0 1.32 0 2 0 C1.67 1.98 1.34 3.96 1 6 C-0.98 6 -2.96 6 -5 6 C-3.38405168 3.95880212 -1.7143618 1.95927063 0 0 Z " fill="#DB454B" transform="translate(349,358)"/>
<path d="M0 0 C1.65 1.65 3.3 3.3 5 5 C4.67 5.99 4.34 6.98 4 8 C2 8 2 8 0.3125 6.8125 C-1 5 -1 5 -0.6875 2.3125 C-0.460625 1.549375 -0.23375 0.78625 0 0 Z " fill="#DB484F" transform="translate(348,334)"/>
<path d="M0 0 C3.33557632 2.9905167 5.15083921 5.93184627 7 10 C6.01 10.495 6.01 10.495 5 11 C4.731875 10.195625 4.46375 9.39125 4.1875 8.5625 C3.795625 7.716875 3.40375 6.87125 3 6 C2.01 5.67 1.02 5.34 0 5 C0 3.35 0 1.7 0 0 Z " fill="#D75359" transform="translate(118,319)"/>
<path d="M0 0 C1.50560497 2.85410334 2.63216796 5.68124642 3.625 8.75 C3.88539063 9.54921875 4.14578125 10.3484375 4.4140625 11.171875 C4.60742188 11.77515625 4.80078125 12.3784375 5 13 C4.01 13.495 4.01 13.495 3 14 C0.96006486 9.07015675 -0.40652968 5.42039575 0 0 Z " fill="#D9676B" transform="translate(205,172)"/>
<path d="M0 0 C1.14926266 0.95421808 2.29430541 1.91352045 3.4375 2.875 C4.07558594 3.40867187 4.71367187 3.94234375 5.37109375 4.4921875 C7 6 7 6 8 8 C5.03 7.505 5.03 7.505 2 7 C1.34 4.69 0.68 2.38 0 0 Z " fill="#DD5359" transform="translate(382,109)"/>
<path d="M0 0 C0 0.33 0 0.66 0 1 C-1.98 1 -3.96 1 -6 1 C-6 2.32 -6 3.64 -6 5 C-8.31 4.67 -10.62 4.34 -13 4 C-8.92504479 -0.07495521 -5.70163125 -0.21929351 0 0 Z " fill="#D6454B" transform="translate(195,65)"/>
<path d="M0 0 C1.32 0.33 2.64 0.66 4 1 C0.375 5.875 0.375 5.875 -3 7 C-3.33 6.01 -3.66 5.02 -4 4 C-2.68 4 -1.36 4 0 4 C0 2.68 0 1.36 0 0 Z " fill="#D8353D" transform="translate(369,390)"/>
<path d="M0 0 C0.99 0.33 1.98 0.66 3 1 C1.35 3.64 -0.3 6.28 -2 9 C-3.10102197 5.69693408 -2.95067299 4.28414305 -2 1 C-1.34 0.67 -0.68 0.34 0 0 Z " fill="#DA3C45" transform="translate(403,355)"/>
<path d="M0 0 C0.99 0.99 1.98 1.98 3 3 C1.62845496 5.95409701 0.01136276 8.44008376 -2 11 C-2.33 9.02 -2.66 7.04 -3 5 C-2.01 5 -1.02 5 0 5 C0 3.35 0 1.7 0 0 Z " fill="#DF3F45" transform="translate(411,340)"/>
<path d="M0 0 C1.98 0 3.96 0 6 0 C6 0.66 6 1.32 6 2 C7.32 2.33 8.64 2.66 10 3 C10 3.66 10 4.32 10 5 C8.51800098 4.55090939 7.03944764 4.09043436 5.5625 3.625 C4.73878906 3.36976563 3.91507812 3.11453125 3.06640625 2.8515625 C1 2 1 2 0 0 Z " fill="#DB4B4F" transform="translate(358,265)"/>
<path d="M0 0 C0.33 0 0.66 0 1 0 C1.19406478 1.64507218 1.38007935 3.29109594 1.5625 4.9375 C1.66691406 5.85402344 1.77132813 6.77054688 1.87890625 7.71484375 C1.91886719 8.46894531 1.95882813 9.22304687 2 10 C1 11 1 11 -1.5625 11.0625 C-2.366875 11.041875 -3.17125 11.02125 -4 11 C-3.01 10.67 -2.02 10.34 -1 10 C-0.67 6.7 -0.34 3.4 0 0 Z " fill="#E0555B" transform="translate(285,198)"/>
<path d="M0 0 C0.99 0.33 1.98 0.66 3 1 C3 2.32 3 3.64 3 5 C3.33 4.34 3.66 3.68 4 3 C4.66 3 5.32 3 6 3 C5.6875 4.9375 5.6875 4.9375 5 7 C4.01 7.33 3.02 7.66 2 8 C1.34 5.36 0.68 2.72 0 0 Z " fill="#E04B53" transform="translate(390,191)"/>
<path d="M0 0 C0.66 0.66 1.32 1.32 2 2 C1.625 4.125 1.625 4.125 1 6 C-2.465 4.02 -2.465 4.02 -6 2 C-5.38125 1.855625 -4.7625 1.71125 -4.125 1.5625 C-1.96741678 1.06847775 -1.96741678 1.06847775 0 0 Z " fill="#DF3F45" transform="translate(335,117)"/>
<path d="M0 0 C2.64 0.33 5.28 0.66 8 1 C8 1.66 8 2.32 8 3 C4.94736336 3.98120464 3.05263664 3.98120464 0 3 C0 2.01 0 1.02 0 0 Z " fill="#E1242A" transform="translate(327,115)"/>
<path d="M0 0 C1.41750563 0.11509661 2.83401169 0.24253658 4.25 0.375 C5.03890625 0.44460937 5.8278125 0.51421875 6.640625 0.5859375 C9.085877 1.01507113 10.84836903 1.78600638 13 3 C11.39667209 3.08121924 9.79215974 3.13929134 8.1875 3.1875 C7.29417969 3.22230469 6.40085937 3.25710937 5.48046875 3.29296875 C2.58352485 2.95081002 1.77444972 2.24606427 0 0 Z " fill="#D7282D" transform="translate(268,95)"/>
<path d="M0 0 C1.65 0 3.3 0 5 0 C5 0.66 5 1.32 5 2 C6.65 2.33 8.3 2.66 10 3 C10 3.99 10 4.98 10 6 C6.00499382 4.6302836 3.19990508 2.74277578 0 0 Z " fill="#D75259" transform="translate(145,405)"/>
<path d="M0 0 C3.91593446 0.78318689 7.36406635 2.39179858 11 4 C7.19362399 5.46399077 4.65257704 4.62336757 1 3 C0.67 2.01 0.34 1.02 0 0 Z " fill="#E15E64" transform="translate(181,380)"/>
<path d="M0 0 C0.99 0 1.98 0 3 0 C3.6875 1.8125 3.6875 1.8125 4 4 C2.6875 5.75 2.6875 5.75 1 7 C0.34 7 -0.32 7 -1 7 C-0.34 5.35 0.32 3.7 1 2 C0.34 1.67 -0.32 1.34 -1 1 C-0.67 0.67 -0.34 0.34 0 0 Z " fill="#DD4A53" transform="translate(381,378)"/>
<path d="M0 0 C0.99 0.33 1.98 0.66 3 1 C2.67 2.65 2.34 4.3 2 6 C1.01 6.33 0.02 6.66 -1 7 C-0.67 4.69 -0.34 2.38 0 0 Z " fill="#E22E39" transform="translate(347,339)"/>
<path d="M0 0 C3.3 0 6.6 0 10 0 C9.67 0.99 9.34 1.98 9 3 C6.03 2.67 3.06 2.34 0 2 C0 1.34 0 0.68 0 0 Z " fill="#D8494E" transform="translate(200,429)"/>
<path d="M0 0 C-0.33 0.99 -0.66 1.98 -1 3 C-3.31 3 -5.62 3 -8 3 C-8.33 2.34 -8.66 1.68 -9 1 C-5.57367167 -0.61798838 -3.61944899 -1.34053666 0 0 Z " fill="#DE3941" transform="translate(302,389)"/>
<path d="M0 0 C0.66 0 1.32 0 2 0 C0.44499019 3.81684226 -2.03595495 6.19195732 -5 9 C-4.42676569 5.13066838 -2.61046448 2.84777943 0 0 Z " fill="#D24C54" transform="translate(397,364)"/>
<path d="M0 0 C2.31 1.98 4.62 3.96 7 6 C6.34 6.66 5.68 7.32 5 8 C1.91763635 5.21592961 1.04793663 4.19174654 0 0 Z " fill="#DD4247" transform="translate(142,351)"/>
<path d="M0 0 C3.36720387 1.39332574 4.9859524 2.9789286 7 6 C5.35 6.33 3.7 6.66 2 7 C2.33 5.68 2.66 4.36 3 3 C2.34 3 1.68 3 1 3 C0.67 2.01 0.34 1.02 0 0 Z " fill="#DF6D71" transform="translate(375,103)"/>
<path d="M0 0 C0.99 0.33 1.98 0.66 3 1 C2.34 2.65 1.68 4.3 1 6 C0.01 6 -0.98 6 -2 6 C-2.33 5.01 -2.66 4.02 -3 3 C-2.01 2.01 -1.02 1.02 0 0 Z " fill="#E44955" transform="translate(120,106)"/>
<path d="M0 0 C2.475 0.99 2.475 0.99 5 2 C5 2.66 5 3.32 5 4 C5.66 4 6.32 4 7 4 C6.67 4.99 6.34 5.98 6 7 C1.125 3.375 1.125 3.375 0 0 Z " fill="#DB606A" transform="translate(114,379)"/>
<path d="M0 0 C1.98 0.99 1.98 0.99 4 2 C4 4.97 4 7.94 4 11 C3.67 11 3.34 11 3 11 C2.01 7.37 1.02 3.74 0 0 Z " fill="#DA2733" transform="translate(345,146)"/>
<path d="M0 0 C0.33 0.99 0.66 1.98 1 3 C1.66 3 2.32 3 3 3 C3.66 4.65 4.32 6.3 5 8 C4.34 8 3.68 8 3 8 C3 7.34 3 6.68 3 6 C1.68 6 0.36 6 -1 6 C-0.67 4.02 -0.34 2.04 0 0 Z " fill="#D8464B" transform="translate(404,134)"/>
<path d="M0 0 C3.26954202 0.56371414 4.82575883 1.49962266 7 4 C6.34 4 5.68 4 5 4 C4.67 4.66 4.34 5.32 4 6 C3.34 6 2.68 6 2 6 C2 4.35 2 2.7 2 1 C1.34 0.67 0.68 0.34 0 0 Z " fill="#D93F46" transform="translate(338,78)"/>
<path d="M0 0 C3.625 -0.1875 3.625 -0.1875 7 0 C7 0.66 7 1.32 7 2 C2.545 2.495 2.545 2.495 -2 3 C-1.34 2.01 -0.68 1.02 0 0 Z " fill="#D24C53" transform="translate(284,431)"/>
<path d="M0 0 C1.32 0.66 2.64 1.32 4 2 C3.01 2.495 3.01 2.495 2 3 C2 3.66 2 4.32 2 5 C0.68 5.33 -0.64 5.66 -2 6 C-1.49396008 3.83125748 -1.00016187 2.00032373 0 0 Z " fill="#E43439" transform="translate(318,419)"/>
<path d="M0 0 C1.32 0.33 2.64 0.66 4 1 C4.33 2.65 4.66 4.3 5 6 C4.01 6 3.02 6 2 6 C1.34 4.02 0.68 2.04 0 0 Z " fill="#DB555E" transform="translate(89,347)"/>
<path d="M0 0 C0.99 0.33 1.98 0.66 3 1 C2.34 2.98 1.68 4.96 1 7 C0.34 7 -0.32 7 -1 7 C-0.67 4.69 -0.34 2.38 0 0 Z " fill="#DD434C" transform="translate(329,187)"/>
<path d="M0 0 C0.99 0.33 1.98 0.66 3 1 C3 1.99 3 2.98 3 4 C3.66 4 4.32 4 5 4 C5 5.32 5 6.64 5 8 C4.34 8 3.68 8 3 8 C0 2.25 0 2.25 0 0 Z " fill="#D6474A" transform="translate(384,178)"/>
<path d="M0 0 C3.03898126 1.01299375 4.12139167 1.4951889 6 4 C6.1875 6.6875 6.1875 6.6875 6 9 C3.03134491 6.45543849 1.6380249 3.51005335 0 0 Z " fill="#DD5D65" transform="translate(155,164)"/>
<path d="M0 0 C1.65 0 3.3 0 5 0 C5.33 1.98 5.66 3.96 6 6 C3.97945196 4.35830472 1.97956942 2.69088222 0 1 C0 0.67 0 0.34 0 0 Z " fill="#DA5D63" transform="translate(356,140)"/>
<path d="M0 0 C0.66 0 1.32 0 2 0 C2 1.98 2 3.96 2 6 C0.68 5.67 -0.64 5.34 -2 5 C-2 4.01 -2 3.02 -2 2 C-1.34 2 -0.68 2 0 2 C0 1.34 0 0.68 0 0 Z " fill="#DE3B3D" transform="translate(166,134)"/>
<path d="M0 0 C0.66 1.32 1.32 2.64 2 4 C1.34 4.66 0.68 5.32 0 6 C-1.32 4.68 -2.64 3.36 -4 2 C-2.68 1.34 -1.36 0.68 0 0 Z " fill="#E14650" transform="translate(166,352)"/>
<path d="M0 0 C0.66 0.99 1.32 1.98 2 3 C1.01 3.495 1.01 3.495 0 4 C-1.0409066 5.64142963 -2.04504326 7.30712215 -3 9 C-3.66 8.01 -4.32 7.02 -5 6 C-4.360625 5.38125 -3.72125 4.7625 -3.0625 4.125 C-0.96116416 2.17402388 -0.96116416 2.17402388 0 0 Z " fill="#DD4C52" transform="translate(371,334)"/>
<path d="M0 0 C0.66 0 1.32 0 2 0 C1.34 2.64 0.68 5.28 0 8 C-2 5 -2 5 -1.6875 2.875 C-1 1 -1 1 0 0 Z " fill="#E1464F" transform="translate(427,311)"/>
<path d="M0 0 C0.99 0 1.98 0 3 0 C3.33 2.64 3.66 5.28 4 8 C1.84622436 5.37801226 0.59927826 3.35595828 0 0 Z " fill="#DE4E52" transform="translate(161,173)"/>
<path d="M0 0 C3.37503669 1.1858237 5.64722731 2.27573689 8 5 C7.01 5.33 6.02 5.66 5 6 C4.67 5.01 4.34 4.02 4 3 C1.98491642 2.26676204 1.98491642 2.26676204 0 2 C0 1.34 0 0.68 0 0 Z " fill="#D44C55" transform="translate(328,132)"/>
<path d="M0 0 C0.33 0.99 0.66 1.98 1 3 C0.01 4.485 0.01 4.485 -1 6 C-2.32 5.67 -3.64 5.34 -5 5 C-3.35 3.35 -1.7 1.7 0 0 Z " fill="#DB4C55" transform="translate(128,99)"/>
</svg>
