<?xml version="1.0" encoding="UTF-8"?>
<svg id="Layer_2" data-name="Layer 2" xmlns="http://www.w3.org/2000/svg" viewBox="0 0 72 51">
  <defs>
    <style>
      .cls-1 {
        fill: #fff;
      }

      .cls-1, .cls-2, .cls-3 {
        stroke-width: 0px;
      }

      .cls-2 {
        fill: #ed3536;
      }

      .cls-3 {
        fill: #015095;
      }
    </style>
  </defs>
  <g id="Layer_1-2" data-name="Layer 1">
    <g>
      <path class="cls-1" d="m0,42v-8.51h3.33l1.75,4.1c.07.14.14.33.23.56.09.23.18.47.27.73s.18.48.25.68h.09c.07-.18.14-.39.24-.63.09-.24.18-.48.27-.72.09-.24.17-.44.24-.61l1.76-4.11h3.24v8.51h-2.13v-4.88c0-.16,0-.33,0-.52,0-.19.01-.38.02-.56,0-.18.01-.34.01-.48h-.1c-.04.14-.1.31-.17.5-.07.19-.14.38-.2.57s-.13.36-.19.5l-2.1,4.88h-2.03l-2.1-4.88c-.08-.19-.16-.38-.24-.58s-.14-.38-.19-.55c-.05-.17-.1-.32-.14-.43h-.1c0,.11.01.25.02.42,0,.17,0,.36.01.56,0,.2,0,.39,0,.58v4.88H0Z"/>
      <path class="cls-1" d="m13.84,42v-8.51h2.14v8.51h-2.14Z"/>
      <path class="cls-1" d="m21.24,42v-6.7h-3.75v-1.81h9.62v1.81h-3.74v6.7h-2.13Z"/>
      <path class="cls-1" d="m28.61,42v-8.51h6.87c.61,0,1.11.12,1.5.37.39.25.69.57.89.98.2.4.3.85.3,1.35s-.13.99-.39,1.43c-.26.44-.65.79-1.18,1.05l1.77,3.33h-2.4l-1.5-2.95h-3.71v2.95h-2.14Zm2.14-4.63h4.1c.35,0,.62-.11.82-.32.2-.21.3-.48.3-.81,0-.23-.05-.43-.14-.58-.09-.16-.22-.28-.38-.36-.16-.08-.37-.12-.61-.12h-4.1v2.19Z"/>
      <path class="cls-1" d="m39.95,42v-8.51h8.72v1.68h-6.57v1.67h5.81v1.66h-5.81v1.8h6.67v1.7h-8.81Z"/>
      <path class="cls-1" d="m50.33,42v-8.51h2.14v4.39l4.99-4.39h2.75l-3.99,3.53,4.07,4.98h-2.7l-2.95-3.69-2.18,1.77v1.92h-2.14Z"/>
      <path class="cls-1" d="m61.15,42l4.22-8.51h2.4l4.22,8.51h-2.33l-.74-1.54h-4.84l-.74,1.54h-2.19Zm3.71-3.18h3.28l-.9-1.94c-.03-.08-.09-.21-.16-.37-.07-.16-.15-.33-.22-.51-.07-.17-.13-.33-.19-.47s-.09-.23-.11-.26h-.1c-.07.17-.14.35-.24.56-.09.21-.18.41-.25.6-.08.19-.15.35-.2.46l-.9,1.93Z"/>
    </g>
    <g>
      <path class="cls-1" d="m10.39,51c-.18,0-.36-.02-.52-.05s-.32-.09-.45-.17c-.13-.08-.23-.18-.31-.31-.08-.13-.11-.28-.11-.47,0-.02,0-.03,0-.05,0-.02,0-.03,0-.05h.47s0,.03,0,.05,0,.04,0,.06c0,.13.04.24.12.33.08.09.19.16.32.2.14.04.29.07.47.07.08,0,.16,0,.25-.01.09,0,.17-.03.25-.05.08-.02.15-.06.21-.1.06-.04.11-.09.15-.15.04-.06.06-.13.06-.22,0-.11-.03-.2-.09-.27-.06-.07-.15-.13-.25-.18-.1-.05-.22-.09-.35-.13s-.27-.07-.41-.11c-.14-.04-.28-.08-.41-.12s-.25-.11-.35-.18c-.1-.07-.19-.16-.25-.26s-.09-.23-.09-.38c0-.14.03-.26.08-.37s.14-.2.25-.28c.11-.08.25-.13.42-.18.17-.04.36-.06.57-.06.18,0,.34.02.49.06.15.04.28.09.4.17.12.08.21.17.27.29.06.12.1.26.1.42v.06h-.46v-.07c0-.11-.03-.2-.1-.28s-.16-.14-.28-.18c-.12-.04-.25-.06-.4-.06-.2,0-.36.02-.49.06-.13.04-.23.09-.29.16s-.09.15-.09.24c0,.1.03.18.09.25s.15.12.25.17c.1.04.22.08.36.12.13.04.27.07.41.11.14.04.27.08.4.13.13.05.25.11.36.18.11.07.19.16.25.26.06.11.09.23.09.39,0,.24-.06.43-.17.58-.12.15-.28.26-.48.32s-.44.1-.71.1Z"/>
      <path class="cls-1" d="m14.53,51c-.35,0-.64-.06-.89-.19-.25-.13-.44-.32-.57-.57-.13-.26-.2-.58-.2-.96s.07-.71.2-.97c.13-.25.33-.45.57-.57.25-.13.55-.19.89-.19s.65.06.89.19c.25.13.44.32.57.57.13.25.2.58.2.97s-.07.71-.2.96-.33.45-.57.57c-.25.13-.55.19-.89.19Zm0-.4c.18,0,.35-.02.49-.07.15-.05.27-.13.37-.23.1-.11.18-.24.24-.4.06-.16.08-.35.08-.57v-.1c0-.22-.03-.42-.08-.58s-.13-.29-.24-.4c-.1-.11-.23-.18-.37-.23-.15-.05-.31-.07-.49-.07s-.35.02-.5.07c-.15.05-.27.13-.37.23-.1.11-.18.24-.24.4-.05.16-.08.35-.08.58v.1c0,.22.03.41.08.57.05.16.13.29.24.4.1.11.23.18.37.23.15.05.31.07.5.07Z"/>
      <path class="cls-1" d="m17.48,50.94v-3.34h.46v2.93h1.66v.4h-2.12Z"/>
      <path class="cls-1" d="m22,51c-.28,0-.53-.05-.73-.14-.2-.09-.36-.23-.47-.43-.11-.2-.16-.45-.16-.76v-2.07h.46v2.12c0,.29.08.51.24.66.16.15.38.22.66.22s.51-.07.68-.22c.16-.15.24-.37.24-.66v-2.12h.46v2.07c0,.31-.06.56-.17.76-.11.2-.27.34-.47.43-.21.09-.45.14-.74.14Z"/>
      <path class="cls-1" d="m26,51c-.18,0-.36-.02-.52-.05s-.32-.09-.45-.17c-.13-.08-.23-.18-.31-.31-.08-.13-.11-.28-.11-.47,0-.02,0-.03,0-.05,0-.02,0-.03,0-.05h.47s0,.03,0,.05,0,.04,0,.06c0,.13.04.24.12.33.08.09.19.16.32.2.14.04.29.07.47.07.08,0,.16,0,.25-.01.09,0,.17-.03.25-.05.08-.02.15-.06.21-.1.06-.04.11-.09.15-.15.04-.06.06-.13.06-.22,0-.11-.03-.2-.09-.27-.06-.07-.15-.13-.25-.18-.1-.05-.22-.09-.35-.13s-.27-.07-.41-.11c-.14-.04-.28-.08-.41-.12s-.25-.11-.35-.18c-.1-.07-.19-.16-.25-.26s-.09-.23-.09-.38c0-.14.03-.26.08-.37s.14-.2.25-.28c.11-.08.25-.13.42-.18.17-.04.36-.06.57-.06.18,0,.34.02.49.06.15.04.28.09.4.17.12.08.21.17.27.29.06.12.1.26.1.42v.06h-.46v-.07c0-.11-.03-.2-.1-.28s-.16-.14-.28-.18c-.12-.04-.25-.06-.4-.06-.2,0-.36.02-.49.06-.13.04-.23.09-.29.16s-.09.15-.09.24c0,.1.03.18.09.25s.15.12.25.17c.1.04.22.08.36.12.13.04.27.07.41.11.14.04.27.08.4.13.13.05.25.11.36.18.11.07.19.16.25.26.06.11.09.23.09.39,0,.24-.06.43-.17.58-.12.15-.28.26-.48.32s-.44.1-.71.1Z"/>
      <path class="cls-1" d="m28.66,50.94v-3.34h.46v3.34h-.46Z"/>
      <path class="cls-1" d="m31.95,50.94v-3.34h.46v3.34h-.46Z"/>
      <path class="cls-1" d="m33.85,50.94v-3.34h.45l1.62,2.2s.04.05.06.09c.03.04.05.08.08.11.03.04.05.07.06.1h.02v-2.5h.45v3.34h-.42l-1.64-2.24s-.06-.09-.1-.15-.08-.12-.11-.16h-.02v2.55h-.45Z"/>
      <path class="cls-1" d="m38.04,50.94v-3.34h1.25c.35,0,.65.06.9.17.25.12.44.3.57.54s.2.56.2.95-.07.7-.2.94-.32.43-.57.55c-.25.12-.55.18-.9.18h-1.25Zm.46-.4h.77c.19,0,.35-.02.5-.07.15-.05.27-.12.37-.22s.18-.22.24-.38c.05-.15.08-.34.08-.55v-.1c0-.22-.03-.41-.08-.56-.05-.15-.13-.28-.23-.38s-.23-.17-.37-.22c-.15-.05-.31-.07-.5-.07h-.77v2.54Z"/>
      <path class="cls-1" d="m43.73,51c-.35,0-.64-.06-.89-.19-.25-.13-.44-.32-.57-.57-.13-.26-.2-.58-.2-.96s.07-.71.2-.97c.13-.25.33-.45.57-.57.25-.13.55-.19.89-.19s.65.06.89.19c.25.13.44.32.57.57.13.25.2.58.2.97s-.07.71-.2.96-.33.45-.57.57c-.25.13-.55.19-.89.19Zm0-.4c.18,0,.35-.02.49-.07.15-.05.27-.13.37-.23.1-.11.18-.24.24-.4.06-.16.08-.35.08-.57v-.1c0-.22-.03-.42-.08-.58s-.13-.29-.24-.4c-.1-.11-.23-.18-.37-.23-.15-.05-.31-.07-.49-.07s-.35.02-.5.07c-.15.05-.27.13-.37.23-.1.11-.18.24-.24.4-.05.16-.08.35-.08.58v.1c0,.22.03.41.08.57.05.16.13.29.24.4.1.11.23.18.37.23.15.05.31.07.5.07Z"/>
      <path class="cls-1" d="m46.68,50.94v-3.34h.45l1.62,2.2s.04.05.06.09c.03.04.05.08.08.11.03.04.05.07.06.1h.02v-2.5h.45v3.34h-.42l-1.64-2.24s-.06-.09-.1-.15-.08-.12-.11-.16h-.02v2.55h-.45Z"/>
      <path class="cls-1" d="m50.87,50.94v-3.34h2.57v.4h-2.11v1.03h1.89v.4h-1.89v1.11h2.14v.4h-2.6Z"/>
      <path class="cls-1" d="m55.95,51c-.18,0-.36-.02-.52-.05s-.32-.09-.45-.17c-.13-.08-.23-.18-.31-.31-.08-.13-.11-.28-.11-.47,0-.02,0-.03,0-.05,0-.02,0-.03,0-.05h.47s0,.03,0,.05,0,.04,0,.06c0,.13.04.24.12.33.08.09.19.16.32.2.14.04.29.07.47.07.08,0,.16,0,.25-.01.09,0,.17-.03.25-.05.08-.02.15-.06.21-.1.06-.04.11-.09.15-.15.04-.06.06-.13.06-.22,0-.11-.03-.2-.09-.27-.06-.07-.15-.13-.25-.18-.1-.05-.22-.09-.35-.13s-.27-.07-.41-.11c-.14-.04-.28-.08-.41-.12s-.25-.11-.35-.18c-.1-.07-.19-.16-.25-.26s-.09-.23-.09-.38c0-.14.03-.26.08-.37s.14-.2.25-.28c.11-.08.25-.13.42-.18.17-.04.36-.06.57-.06.18,0,.34.02.49.06.15.04.28.09.4.17.12.08.21.17.27.29.06.12.1.26.1.42v.06h-.46v-.07c0-.11-.03-.2-.1-.28s-.16-.14-.28-.18c-.12-.04-.25-.06-.4-.06-.2,0-.36.02-.49.06-.13.04-.23.09-.29.16s-.09.15-.09.24c0,.1.03.18.09.25s.15.12.25.17c.1.04.22.08.36.12.13.04.27.07.41.11.14.04.27.08.4.13.13.05.25.11.36.18.11.07.19.16.25.26.06.11.09.23.09.39,0,.24-.06.43-.17.58-.12.15-.28.26-.48.32s-.44.1-.71.1Z"/>
      <path class="cls-1" d="m58.6,50.94v-3.34h.46v3.34h-.46Z"/>
      <path class="cls-1" d="m60.16,50.94l1.32-3.34h.61l1.32,3.34h-.5l-.33-.83h-1.63l-.32.83h-.48Zm.95-1.22h1.32l-.4-1.05s-.02-.07-.04-.12c-.02-.05-.04-.11-.06-.17s-.05-.13-.07-.19-.04-.13-.06-.18h-.03c-.02.06-.05.14-.08.22s-.06.17-.09.25c-.03.08-.05.15-.07.2l-.41,1.05Z"/>
    </g>
    <g>
      <polygon class="cls-3" points="28.59 13.42 34.59 19.42 30 24 18 24 18 0 30 0 34.59 4.59 28.59 10.59 27.17 12 28.59 13.42"/>
      <polygon class="cls-2" points="54 0 54 24 42 24 37.42 19.42 43.41 13.42 44.83 12 43.41 10.59 37.41 4.59 42 0 54 0"/>
      <rect class="cls-1" x="31.76" y="7.76" width="8.49" height="8.49" transform="translate(2.06 28.97) rotate(-45)"/>
    </g>
  </g>
</svg>